P2
128 99
255
2 2 2 2 2 2 2 2 2 2 2 2 2 2 2 2 2 2 2 2 2 2 2 2 2 2 2 2 2 2 2 2 2 2 2 2 2 2 2 2 2 2 2 2 2 2 2 2 2 2 2 2 2 2 1 1 1 2 2 2 2 1 2 2 2 2 2 1 1 2 2 2 2 2 2 2 1 1 2 2 2 1 1 2 2 2 2 2 2 2 2 1 2 2 2 2 2 2 2 2 2 1 2 1 1 2 2 2 2 2 2 2 2 1 2 2 2 2 2 2 2 2 2 2 2 2 2 2 
2 2 2 2 2 2 2 2 2 2 2 2 2 2 2 2 2 2 2 2 2 2 2 2 2 2 2 2 2 2 2 2 2 2 2 2 2 2 2 2 2 2 2 2 2 2 2 2 2 3 2 1 2 2 2 1 1 2 2 2 2 1 1 2 2 2 2 2 2 2 1 2 2 2 1 2 2 2 1 2 2 2 2 2 2 2 2 2 2 2 2 2 2 2 2 2 2 2 2 2 2 2 2 2 2 2 2 2 2 1 1 2 2 2 2 2 2 2 2 2 2 2 2 2 2 2 2 2 
2 2 2 2 2 2 2 2 2 2 2 2 2 2 2 2 2 2 2 2 2 2 2 2 2 2 2 2 2 2 2 2 2 2 2 2 2 2 2 2 2 2 2 2 2 2 2 2 2 2 2 1 2 2 1 1 2 2 1 2 2 1 1 2 2 2 2 2 2 2 1 2 2 2 2 2 2 2 2 2 2 2 2 2 2 1 2 2 1 2 2 1 2 2 2 2 1 2 1 2 2 2 1 2 2 2 2 1 2 2 2 2 2 2 2 2 2 1 2 2 2 2 2 2 2 2 2 2 
2 2 2 2 2 2 2 2 2 2 2 2 2 2 2 2 2 2 2 2 2 2 2 2 2 2 2 2 2 2 2 2 2 2 2 2 2 2 2 2 2 2 2 2 2 2 2 1 2 2 2 1 2 2 2 1 2 2 1 2 2 2 1 2 1 1 2 2 1 2 2 1 2 2 1 1 2 2 2 2 2 2 2 2 2 2 1 2 2 2 2 2 2 2 1 2 2 2 2 2 2 2 1 1 2 2 2 2 2 2 2 1 2 2 2 2 2 2 2 2 2 2 2 2 2 2 2 2 
2 2 2 2 2 2 2 2 2 2 2 2 2 2 2 2 2 2 2 2 2 2 2 2 2 2 2 2 2 2 2 2 2 2 2 2 2 2 2 2 2 2 2 2 2 2 2 2 1 2 2 1 1 2 2 2 1 2 1 2 2 1 2 2 2 2 2 2 2 2 1 2 2 2 2 2 1 1 1 1 2 2 1 2 2 2 2 2 1 2 1 1 2 1 1 1 1 1 2 1 2 1 1 1 1 1 2 1 1 1 1 1 1 1 2 2 2 1 2 2 2 2 2 2 1 2 2 2 
2 2 2 2 2 2 2 2 2 2 2 2 2 2 2 2 2 2 2 2 2 2 2 2 2 2 2 2 2 2 2 2 2 2 2 2 2 2 2 2 2 2 2 2 2 2 2 2 2 2 1 1 1 2 1 1 2 2 1 1 2 1 2 2 1 1 2 2 1 2 2 1 1 2 2 2 2 1 1 2 2 2 1 2 1 1 1 1 1 1 2 2 2 1 1 1 1 1 1 1 1 1 1 1 2 1 1 1 1 1 1 2 2 1 2 2 2 1 1 2 1 1 1 1 1 1 1 1 
2 2 2 2 2 2 2 2 2 2 2 2 2 2 2 2 2 2 2 2 2 2 2 2 2 2 2 2 2 2 2 2 2 2 2 2 2 2 2 2 2 2 2 2 2 2 2 2 2 2 1 2 2 1 2 1 1 1 1 2 2 1 1 2 1 2 1 2 1 1 2 2 2 2 2 1 1 1 1 2 2 1 1 2 2 1 1 1 1 1 2 1 1 1 1 2 1 1 1 2 2 1 0 1 1 1 1 1 1 1 0 1 2 1 2 1 0 1 1 2 1 1 2 1 1 2 1 1 
2 2 2 2 2 2 2 2 2 2 2 2 2 2 2 2 2 2 2 2 2 2 2 2 2 2 2 2 2 2 2 2 2 2 2 2 2 2 2 2 2 2 2 2 2 2 2 1 2 2 2 1 2 2 2 2 1 2 2 1 1 1 1 2 1 1 2 2 1 1 2 2 1 1 2 1 1 1 1 1 2 1 1 2 1 1 1 1 1 2 1 1 1 1 1 1 1 1 0 1 1 1 1 1 1 0 1 1 1 0 1 1 0 1 1 1 1 1 1 2 1 1 1 1 1 1 1 1 
2 2 2 2 2 2 2 2 2 2 2 2 2 2 2 2 2 2 2 2 2 2 2 2 2 2 2 2 2 2 2 2 2 2 2 2 2 2 2 2 2 2 2 2 2 2 2 2 2 1 2 2 2 2 1 1 2 1 1 2 1 1 1 2 1 2 2 1 1 2 2 1 2 1 1 2 2 1 1 1 2 1 1 1 1 1 1 1 1 1 1 1 1 1 1 2 1 1 1 1 1 1 1 1 1 1 1 1 2 1 1 1 1 1 1 1 1 1 1 1 0 1 0 0 1 1 1 1 
2 2 2 2 2 2 2 2 2 2 2 2 2 2 2 2 2 2 2 2 2 2 2 2 2 2 2 2 2 2 2 2 2 2 2 2 2 2 2 2 2 2 2 2 2 2 2 2 2 2 2 2 1 1 1 1 2 1 1 1 1 1 1 2 1 1 2 2 1 1 2 1 2 1 1 1 1 0 1 2 2 1 1 2 1 2 1 1 2 1 1 1 1 1 1 1 1 1 2 1 1 1 1 0 1 2 1 1 1 1 0 1 1 2 1 1 1 0 0 1 0 1 0 0 1 1 1 1 
2 2 2 2 2 2 2 2 2 2 2 2 2 2 2 2 2 2 2 2 2 2 2 2 2 2 2 2 2 2 2 2 2 2 2 2 2 2 2 2 2 2 2 2 2 2 2 2 1 2 2 2 2 2 2 2 1 1 1 2 1 0 1 2 1 1 1 1 1 1 2 1 1 2 1 2 2 1 0 1 1 1 1 1 1 1 1 1 1 1 0 1 2 1 2 1 0 1 1 1 1 2 1 1 1 1 1 1 1 1 1 0 0 1 2 0 0 1 1 2 1 1 1 0 1 1 1 0 
2 2 2 2 2 2 2 2 2 2 2 2 2 2 2 2 2 2 2 2 2 2 2 2 2 2 2 2 2 2 2 2 2 2 2 2 2 2 2 2 2 2 2 2 2 2 2 2 2 2 2 1 1 2 1 1 1 1 1 2 1 0 1 2 1 2 2 1 1 1 2 0 1 2 0 2 2 1 1 1 1 1 2 1 1 1 1 0 1 1 1 1 1 1 1 1 1 1 1 1 1 1 1 0 1 1 1 1 1 1 1 1 1 1 2 1 1 1 1 1 1 1 1 1 1 0 1 1 
2 2 2 2 2 2 2 2 2 2 2 2 2 2 2 2 2 2 2 2 2 2 2 2 2 2 2 2 2 2 2 2 2 2 2 2 2 2 2 2 2 2 2 2 2 2 2 1 1 2 1 2 2 2 1 2 2 1 1 1 1 1 1 1 1 2 2 1 1 1 1 1 2 1 1 2 1 1 1 2 0 1 1 1 1 1 1 0 1 1 1 2 1 1 0 1 2 1 1 0 1 1 1 1 1 1 1 1 1 1 1 1 2 0 1 0 0 0 1 2 1 1 1 1 2 1 1 1 
2 2 2 2 2 2 2 2 2 2 2 2 2 2 2 2 2 2 2 2 2 2 2 2 2 2 2 2 2 2 2 2 2 2 2 2 2 2 2 2 2 2 2 2 2 2 2 2 1 2 1 1 1 1 1 2 2 1 1 2 0 1 1 1 1 1 2 1 1 1 1 1 2 1 1 0 1 0 2 1 1 0 1 1 1 1 1 1 2 1 1 1 1 1 1 1 1 2 1 1 1 2 1 1 0 1 1 1 1 1 1 0 1 0 1 0 1 1 1 1 0 2 1 1 1 1 1 1 
2 2 2 2 2 2 2 2 2 2 2 2 2 2 2 2 2 2 2 2 2 2 2 2 2 2 2 2 2 2 2 2 2 2 2 2 2 2 2 2 2 2 2 2 2 2 2 2 2 2 2 1 1 1 1 2 1 0 1 2 1 0 1 1 2 1 1 1 1 1 1 1 2 1 1 1 1 1 1 1 1 2 1 0 2 2 1 1 1 0 2 1 1 2 1 1 1 1 2 1 1 1 1 0 1 1 1 1 1 1 1 0 2 1 0 1 1 1 1 1 1 2 1 1 1 1 0 2 
2 2 2 2 2 2 2 2 2 2 2 2 2 2 2 2 2 2 2 2 2 2 2 2 2 2 2 2 2 2 2 2 2 2 2 2 2 2 2 2 2 2 2 2 2 2 2 1 2 1 2 1 2 1 1 1 1 0 1 2 1 1 1 2 1 1 1 1 1 1 0 0 1 1 1 1 1 1 2 2 1 0 1 1 1 1 0 1 1 1 1 2 1 1 1 1 1 1 1 1 1 1 1 1 1 1 1 1 0 1 1 1 1 1 1 1 1 0 1 0 1 1 1 1 1 1 0 2 
2 2 2 2 2 2 2 2 2 2 2 2 2 2 2 2 2 2 2 2 2 2 2 2 2 2 2 2 2 2 2 2 2 2 2 2 2 2 2 2 2 2 2 2 2 2 1 2 2 1 2 1 2 1 2 2 1 0 0 2 1 2 1 1 1 1 1 1 1 1 1 1 1 0 1 1 0 1 1 1 1 1 1 1 1 1 1 1 1 1 1 1 2 1 0 1 1 0 1 0 1 0 1 1 1 0 1 1 1 0 1 1 2 1 1 1 1 1 1 2 1 1 0 0 1 1 1 2 
2 2 2 2 2 2 2 2 2 2 2 2 2 2 2 2 2 2 2 2 2 2 2 2 2 2 2 2 2 2 2 2 2 2 2 2 2 2 2 2 2 2 2 2 2 2 2 3 2 1 1 2 2 1 1 2 1 1 1 1 1 1 1 1 1 2 1 0 1 0 1 1 1 1 2 1 0 1 1 1 1 1 1 1 1 0 1 1 0 1 1 2 1 1 1 1 1 1 1 2 1 1 1 1 1 1 1 1 2 1 1 1 0 1 1 1 1 1 1 2 1 1 1 1 0 1 2 1 
2 2 2 2 2 2 2 2 2 2 2 2 2 2 2 2 2 2 2 2 2 2 2 2 2 2 2 2 2 2 2 2 2 2 2 2 2 2 2 2 2 2 2 2 2 2 1 2 2 1 2 2 1 0 1 2 1 1 2 2 1 1 1 1 2 2 1 1 1 1 0 1 1 1 1 1 1 0 1 1 1 1 1 1 1 1 1 1 0 1 2 1 1 0 1 1 0 1 1 1 1 2 1 1 0 1 1 2 1 0 1 2 1 1 1 1 2 1 1 1 2 2 2 0 1 1 2 1 
2 2 2 2 2 2 2 2 2 2 2 2 2 2 2 2 2 2 2 2 2 2 2 2 2 2 2 2 2 2 2 2 2 2 2 2 2 2 2 2 2 2 2 2 2 2 2 2 2 1 2 1 2 1 1 2 1 1 2 2 1 1 1 1 2 2 2 1 0 0 1 1 1 1 1 1 0 2 1 1 1 2 1 1 1 1 1 2 1 1 0 2 1 1 1 2 1 1 2 1 1 1 0 1 2 1 1 1 1 2 1 2 2 2 2 2 2 2 1 1 2 1 1 1 0 1 1 0 
2 2 2 2 2 2 2 2 2 2 2 2 2 2 2 2 2 2 2 2 2 2 2 2 2 2 2 2 2 2 2 2 2 2 2 2 2 2 2 2 2 2 2 2 2 2 2 2 2 1 0 2 2 1 3 1 0 2 1 2 1 1 2 2 2 1 1 2 0 0 1 1 1 1 2 1 1 1 2 1 1 2 1 0 1 1 1 0 2 1 2 1 0 0 2 2 1 1 2 1 1 2 1 1 1 1 1 2 1 2 2 1 2 3 2 1 2 1 2 2 2 0 1 2 1 0 1 1 
2 2 2 2 2 2 2 2 2 2 2 2 2 2 2 2 2 2 2 2 2 2 2 2 2 2 2 2 2 2 2 2 2 2 2 2 2 2 2 2 2 2 2 2 2 2 2 2 3 2 0 2 1 2 2 2 1 2 2 1 1 1 2 1 2 3 1 0 1 1 1 1 1 2 2 2 2 1 1 1 1 1 0 1 1 2 1 1 1 1 1 1 1 1 1 1 3 2 1 1 2 1 1 2 1 2 3 2 2 1 2 1 2 2 2 1 1 2 1 1 1 1 1 2 2 2 2 1 
2 2 2 2 2 2 2 2 2 2 2 2 2 2 2 2 2 2 2 2 2 2 2 2 2 2 2 2 2 2 2 2 2 2 2 2 2 2 2 2 2 2 2 2 2 2 2 2 2 1 1 2 2 1 1 2 2 2 2 1 1 1 1 2 2 0 0 1 1 1 1 1 2 2 1 1 1 1 1 1 1 1 1 1 0 1 1 0 0 2 1 1 2 1 1 1 1 2 2 2 2 2 1 3 1 2 2 1 1 2 1 1 1 2 2 1 2 2 2 2 2 2 2 1 2 2 2 2 
2 2 2 2 2 2 2 2 2 2 2 2 2 2 2 2 2 2 2 2 2 2 2 2 2 2 2 2 2 2 2 2 2 2 2 2 2 2 2 2 2 2 2 2 2 2 2 2 2 2 1 1 1 0 2 1 1 2 2 1 2 1 1 1 0 1 1 1 2 0 1 3 2 2 1 1 0 2 1 0 1 1 0 1 1 1 1 1 1 2 1 1 1 2 1 1 3 1 3 2 1 2 3 2 2 2 2 1 2 3 1 2 2 2 1 1 3 2 3 3 1 2 1 2 2 3 2 2 
2 2 2 2 2 2 2 2 2 2 2 2 2 2 2 2 2 2 2 2 2 2 2 2 2 2 2 2 2 2 2 2 2 2 2 2 2 2 2 2 2 2 2 2 2 2 2 2 2 2 2 1 1 1 1 1 1 1 2 2 2 1 0 0 1 1 0 1 1 0 0 2 1 1 1 0 1 1 1 2 2 1 2 1 1 1 1 1 1 1 1 1 2 1 1 2 2 2 1 2 2 2 2 2 2 2 2 2 3 2 2 1 2 2 3 1 2 2 1 2 2 2 1 1 2 2 1 2 
2 2 2 2 2 2 2 2 2 2 2 2 2 2 2 2 2 2 2 2 2 2 2 2 2 2 2 2 2 2 2 2 2 2 2 2 2 2 2 2 2 2 2 2 2 2 2 2 2 2 2 1 1 2 2 2 1 1 1 1 1 1 1 0 0 1 0 0 1 1 2 1 1 1 1 1 1 1 0 1 1 2 2 1 1 1 2 1 1 1 1 1 2 1 2 2 2 1 1 2 2 2 2 2 1 2 2 2 2 2 2 2 2 2 2 2 1 2 2 2 1 2 2 2 2 1 2 1 
2 2 2 2 2 2 2 2 2 2 2 2 2 2 2 2 2 2 2 2 2 2 2 2 2 2 2 2 2 2 2 2 2 2 2 2 2 2 2 2 2 2 2 2 2 2 1 2 2 2 2 2 1 2 1 1 1 2 1 1 1 2 0 0 0 0 0 0 1 1 0 1 1 0 2 1 0 1 1 1 2 1 1 2 1 2 2 2 3 1 1 2 2 1 2 2 2 1 2 2 2 2 2 2 2 2 2 2 2 2 2 2 2 3 2 3 2 1 1 2 2 3 2 1 3 2 2 1 
2 2 2 2 2 2 2 2 2 2 2 2 2 2 2 2 2 2 2 2 2 2 2 2 2 2 2 2 2 2 2 2 2 2 2 2 2 2 2 2 2 2 2 2 2 2 2 2 1 1 2 2 2 1 1 1 2 1 1 1 1 0 0 1 1 1 0 1 1 1 2 1 0 1 1 1 1 1 2 1 1 1 1 2 1 2 1 2 1 2 2 2 1 2 1 2 2 2 2 2 1 2 2 2 2 2 3 2 1 3 2 3 3 3 3 2 2 2 1 2 2 2 2 2 2 2 1 2 
2 2 2 2 2 2 2 2 2 2 2 2 2 2 2 2 2 2 2 2 2 2 2 2 2 2 2 2 2 2 2 2 2 2 2 2 2 2 2 2 2 2 2 2 2 2 2 2 1 1 2 1 1 1 1 1 2 2 1 1 1 0 1 0 1 0 0 1 0 0 1 1 1 0 2 1 1 2 1 2 1 1 1 1 2 2 3 1 1 2 2 2 2 2 2 1 1 2 2 1 1 1 2 2 2 2 3 2 1 1 3 3 2 2 3 2 3 2 2 1 2 2 1 3 2 2 3 2 
2 2 2 2 2 2 2 2 2 2 2 2 2 2 2 2 2 2 2 2 2 2 2 2 2 2 2 2 2 2 2 2 2 2 2 2 2 2 2 2 2 2 2 2 2 2 2 2 2 2 2 1 1 1 2 1 1 2 2 1 0 1 0 0 0 1 1 1 1 0 0 0 1 1 1 0 0 1 1 1 1 1 1 1 1 2 2 1 1 1 1 2 2 1 3 2 1 1 1 2 2 1 1 1 1 1 1 2 2 1 2 2 2 2 3 2 2 1 1 2 1 1 2 2 2 2 1 3 
2 2 2 2 2 2 2 2 2 2 2 2 2 2 2 2 2 2 2 2 2 2 2 2 2 2 2 2 2 2 2 2 2 2 2 2 2 2 2 2 2 2 2 2 2 2 1 1 2 2 2 2 3 2 2 2 1 1 2 1 0 2 0 1 1 1 1 0 1 1 1 1 1 0 1 1 1 0 0 1 1 2 0 1 2 2 1 0 2 1 2 2 1 1 1 2 1 1 2 0 2 1 1 1 1 2 2 2 3 2 2 2 2 2 3 2 2 2 2 2 2 3 1 2 3 2 2 1 
2 2 2 2 2 2 2 2 2 2 2 2 2 2 2 2 2 2 2 2 2 2 2 2 2 2 2 2 2 2 2 2 2 2 2 2 2 2 2 2 2 2 2 2 2 2 2 1 1 2 2 1 1 1 2 2 2 2 2 2 0 0 2 0 1 1 0 0 1 0 1 3 1 1 0 0 1 1 0 1 2 1 0 2 1 0 2 0 2 3 2 1 1 1 1 1 1 2 1 2 2 1 1 2 0 2 3 3 2 1 2 2 2 3 1 1 2 2 2 1 2 2 2 1 1 2 2 2 
2 2 2 2 2 2 2 2 2 2 2 2 2 2 2 2 2 2 2 2 2 2 2 2 2 2 2 2 2 2 2 2 2 2 2 2 2 2 2 2 2 2 2 2 2 2 2 2 1 2 2 1 1 2 2 1 2 1 2 3 1 1 1 1 0 0 0 0 0 0 1 1 2 1 0 0 1 1 0 1 2 1 1 2 2 2 2 1 3 3 3 2 1 1 1 1 2 2 1 1 2 1 1 2 1 1 2 1 2 2 3 2 3 1 1 2 2 2 2 2 2 2 2 1 1 1 1 2 
2 2 2 2 2 2 2 2 2 2 2 2 2 2 2 2 2 2 2 2 2 2 2 2 2 2 2 2 2 2 2 2 2 2 2 2 2 2 2 2 2 2 2 2 2 2 3 2 2 2 2 1 1 1 2 2 2 2 2 2 1 1 2 1 1 0 0 0 0 1 0 0 0 1 1 1 1 0 0 1 1 0 3 3 4 4 4 4 4 3 3 3 2 2 1 1 1 3 1 2 1 1 2 0 1 3 2 1 1 2 2 2 2 2 1 1 2 2 3 1 2 2 1 0 0 2 1 2 
2 2 2 2 2 2 2 2 2 2 2 2 2 2 2 2 2 2 2 2 2 2 2 2 2 2 2 2 2 2 2 2 2 2 2 2 2 2 2 2 2 2 2 2 2 2 2 1 1 2 2 2 1 0 2 1 1 1 2 1 1 2 1 0 1 0 0 1 1 1 1 0 0 0 0 1 1 1 2 2 2 3 3 4 4 3 3 3 4 4 3 3 3 3 2 1 2 2 1 1 1 1 1 1 1 2 2 1 2 2 1 2 2 2 1 2 2 2 1 2 2 2 1 0 2 1 2 1 
2 2 2 2 2 2 2 2 2 2 2 2 2 2 2 2 2 2 2 2 2 2 2 2 2 2 2 2 2 2 2 2 2 2 2 2 2 2 2 2 2 2 2 2 2 2 2 2 1 2 1 1 1 2 1 1 1 1 1 1 2 1 0 0 2 1 1 1 0 0 0 0 1 1 1 1 1 1 2 3 3 3 2 3 3 4 3 3 5 5 4 3 3 3 1 2 1 2 1 2 2 1 1 2 2 2 2 1 2 1 1 1 2 2 2 1 1 2 1 2 3 2 1 1 2 2 2 1 
2 2 2 2 2 2 2 2 2 2 2 2 2 2 2 2 2 2 2 2 2 2 2 2 2 2 2 2 2 2 2 2 2 2 2 2 2 2 2 2 2 2 2 2 2 2 2 2 1 2 1 2 1 2 0 1 1 2 1 0 1 0 1 1 1 1 1 1 1 0 1 1 2 2 2 1 2 2 2 3 3 3 3 3 3 3 4 4 4 4 4 4 4 3 2 1 1 2 2 2 2 1 1 2 0 1 2 2 1 1 1 2 1 1 1 1 2 3 2 1 1 2 3 2 2 2 2 2 
2 2 2 2 2 2 2 2 2 2 2 2 2 2 2 2 2 2 2 2 2 2 2 2 2 2 2 2 2 2 2 2 2 2 2 2 2 2 2 2 2 2 2 2 2 2 3 2 1 2 2 0 1 1 1 1 2 2 1 1 0 1 1 0 1 2 1 1 1 2 2 2 0 2 2 2 1 2 2 2 3 1 2 4 3 4 5 4 4 4 4 4 4 3 2 2 1 1 1 2 2 2 1 1 0 2 2 2 2 1 2 2 2 2 1 1 2 1 1 2 2 1 2 3 3 2 2 3 
2 2 2 2 2 2 2 2 2 2 2 2 2 2 2 2 2 2 2 2 2 2 2 2 2 2 2 2 2 2 2 2 2 2 2 2 2 2 2 2 2 2 2 2 2 2 1 1 2 3 1 1 2 1 2 1 1 2 1 1 1 0 1 1 1 2 2 2 2 2 1 1 1 0 1 1 2 1 1 3 10 9 3 4 3 4 4 3 4 4 4 4 4 3 3 2 3 2 2 2 2 1 2 2 1 2 3 2 2 2 2 2 2 2 2 0 0 1 2 1 2 2 3 3 2 3 2 2 
2 2 2 2 2 2 2 2 2 2 2 2 2 2 2 2 2 2 2 2 2 2 2 2 2 2 2 2 2 2 2 2 2 2 2 2 2 2 2 2 2 2 2 2 2 2 1 1 2 2 1 2 2 2 1 1 1 2 1 1 1 1 1 2 2 2 3 3 2 3 1 1 2 1 1 1 1 3 2 3 4 4 4 5 3 3 4 3 3 4 3 3 3 3 3 2 2 2 3 2 2 1 2 3 2 2 2 2 3 2 2 1 2 1 2 1 1 1 1 2 1 1 2 3 2 1 3 1 
2 2 2 2 2 2 2 2 2 2 2 2 2 2 2 2 2 2 2 2 2 2 2 2 2 2 2 2 2 2 2 2 2 2 2 2 2 2 2 2 2 2 2 2 2 2 1 2 1 1 2 2 2 1 1 1 2 1 0 1 1 2 2 2 2 3 3 2 2 2 2 2 1 1 3 2 2 2 3 4 4 2 3 4 3 2 3 3 2 3 3 2 3 2 4 3 2 2 2 3 2 1 2 1 2 2 3 2 2 1 2 2 3 2 2 0 1 1 2 1 0 1 1 2 1 1 2 1 
2 2 2 2 2 2 2 2 2 2 2 2 2 2 2 2 2 2 2 2 2 2 2 2 2 2 2 2 2 2 2 2 2 2 2 2 2 2 2 2 2 2 2 2 2 2 2 1 1 2 1 1 2 1 2 1 0 1 2 3 2 3 2 2 3 2 2 2 3 2 2 1 3 2 4 3 3 3 3 3 3 4 4 3 2 2 2 2 3 2 2 2 1 1 2 3 3 2 2 2 1 2 1 1 2 2 2 2 2 2 1 2 2 2 1 1 1 0 2 1 0 0 1 2 1 1 1 2 
2 2 2 2 2 2 2 2 2 2 2 2 2 2 2 2 2 2 2 2 2 2 2 2 2 2 2 2 2 2 2 2 2 2 2 2 2 2 2 2 2 2 2 2 2 2 2 1 1 2 2 2 1 2 0 1 1 3 3 3 3 2 3 3 3 3 3 2 1 2 2 4 3 3 4 3 2 3 2 3 3 2 2 2 2 1 1 2 1 2 2 2 3 2 2 3 2 4 3 1 1 2 2 1 1 2 2 1 1 1 0 1 2 1 1 1 1 1 0 0 1 1 1 2 2 1 2 2 
2 2 2 2 2 2 2 2 2 2 2 2 2 2 2 2 2 2 2 2 2 2 2 2 2 2 2 2 2 2 2 2 2 2 2 2 2 2 2 2 2 2 2 2 2 2 2 1 1 2 2 1 1 2 1 2 3 4 3 2 3 2 3 3 3 4 2 2 3 4 3 2 4 3 4 3 3 4 3 2 3 3 1 2 1 1 0 2 3 2 1 1 2 2 3 2 3 4 3 1 2 1 2 2 1 1 1 1 1 0 1 0 2 1 0 1 1 1 1 1 0 2 2 1 1 2 2 2 
2 2 2 2 2 2 2 2 2 2 2 2 2 2 2 2 2 2 2 2 2 2 2 2 2 2 2 2 2 2 2 2 2 2 2 2 2 2 2 2 2 2 2 2 2 2 2 2 0 1 2 1 2 2 3 3 3 4 3 3 3 3 2 3 4 3 3 2 3 2 3 4 3 3 4 4 3 2 3 3 4 4 2 3 2 2 2 1 3 3 1 2 3 2 3 3 2 2 2 2 1 2 1 1 2 3 4 7 11 13 11 6 3 0 0 0 1 0 0 1 2 3 2 2 2 2 2 3 
2 2 2 2 2 2 2 2 2 2 2 2 2 2 2 2 2 2 2 2 2 2 2 2 2 2 2 2 2 2 2 2 2 2 2 2 2 2 2 2 2 2 2 2 2 2 2 2 1 2 3 2 2 2 2 3 3 3 3 3 3 2 2 3 3 3 2 2 2 3 3 3 3 4 4 3 4 3 4 4 3 4 3 3 4 3 2 2 3 3 2 2 2 2 3 3 2 2 3 2 2 2 4 16 36 52 60 66 71 73 70 63 52 32 13 2 0 0 0 2 1 2 2 2 2 2 3 3 
2 2 2 2 2 2 2 2 2 2 2 2 2 2 2 2 2 2 2 2 2 2 2 2 2 2 2 2 2 2 2 2 2 2 2 2 2 2 2 2 2 2 2 2 2 2 2 2 1 2 2 2 2 3 3 3 3 3 3 3 3 2 3 3 2 3 3 2 2 4 3 3 4 4 3 2 3 3 3 4 4 3 3 5 3 3 2 2 3 1 3 2 2 1 1 3 2 1 1 0 1 8 35 66 81 85 87 91 97 97 92 87 84 81 69 38 9 0 0 0 1 1 0 2 2 3 3 2 
2 2 2 2 2 2 2 2 2 2 2 2 2 2 2 2 2 2 2 2 2 2 2 2 2 2 2 2 2 2 2 2 2 2 2 2 2 2 2 2 2 2 2 2 2 2 2 3 3 2 3 3 2 3 3 3 2 2 3 4 2 3 3 3 1 3 3 3 2 3 3 3 4 3 3 2 4 3 4 3 4 4 3 3 4 2 3 3 2 3 2 2 3 2 2 2 2 2 1 0 5 30 67 82 84 78 75 83 91 90 84 74 74 82 83 77 44 8 0 0 0 1 1 1 1 2 2 2 
2 2 2 2 2 2 2 2 2 2 2 2 2 2 2 2 2 2 2 2 2 2 2 2 2 2 2 2 2 2 2 2 2 2 2 2 2 2 2 2 2 2 2 2 2 2 2 2 2 3 1 3 3 2 3 3 2 3 4 3 3 3 3 3 4 2 2 3 3 4 3 3 3 4 3 3 2 3 3 2 4 4 3 3 3 3 3 3 3 3 2 2 1 2 1 0 1 2 0 1 15 53 81 84 77 49 23 42 79 86 58 23 30 66 83 84 76 37 4 0 0 0 0 0 1 1 1 2 
2 2 2 2 2 2 2 2 2 2 2 2 2 2 2 2 2 2 2 2 2 2 2 2 2 2 2 2 2 2 2 2 2 2 2 2 2 2 2 2 2 2 2 2 2 2 3 3 2 2 2 3 3 3 3 4 2 3 4 4 3 3 2 3 4 3 2 3 3 3 3 4 4 4 3 2 3 3 3 2 4 4 4 4 3 3 2 3 3 3 2 3 2 2 1 1 1 0 1 6 34 72 83 82 72 32 4 18 66 81 45 6 9 50 80 82 84 64 21 1 0 0 0 1 1 1 1 3 
2 2 2 2 2 2 2 2 2 2 2 2 2 2 2 2 2 2 2 2 2 2 2 2 2 2 2 2 2 2 2 2 2 2 2 2 2 2 2 2 2 2 2 2 2 2 2 3 3 2 2 3 2 2 3 3 2 2 3 4 3 2 3 3 4 3 2 3 3 3 4 3 4 4 2 3 3 3 3 3 4 5 3 2 2 3 4 2 2 3 3 3 2 2 1 1 1 1 2 19 60 81 82 81 64 22 3 23 68 83 53 11 4 35 74 83 82 80 48 11 0 0 0 0 0 0 1 2 
2 2 2 2 2 2 2 2 2 2 2 2 2 2 2 2 2 2 2 2 2 2 2 2 2 2 2 2 2 2 2 2 2 2 2 2 2 2 2 2 2 2 2 2 2 2 3 3 3 3 4 4 3 2 3 3 4 3 1 4 3 3 2 4 3 4 3 3 3 3 4 4 3 3 3 3 4 4 3 3 4 4 3 3 2 2 3 3 4 3 2 2 2 1 1 0 1 1 10 44 76 83 82 82 60 16 5 36 76 87 64 17 2 27 70 83 81 82 73 34 6 0 0 0 0 0 1 1 
2 2 2 2 2 2 2 2 2 2 2 2 2 2 2 2 2 2 2 2 2 2 2 2 2 2 2 2 2 2 2 2 2 2 2 2 2 2 2 2 2 2 2 2 2 2 2 3 4 2 2 2 2 2 3 3 3 3 3 3 3 3 2 2 3 2 2 4 4 4 4 2 3 3 4 3 3 4 3 3 3 3 2 4 1 2 2 3 3 2 3 3 2 1 1 0 0 6 32 70 83 83 83 81 62 21 15 55 84 88 72 27 9 39 74 83 83 82 80 61 20 1 0 0 0 1 0 1 
2 2 2 2 2 2 2 2 2 2 2 2 2 2 2 2 2 2 2 2 2 2 2 2 2 2 2 2 2 2 2 2 2 2 2 2 2 2 2 2 2 2 2 2 2 2 4 4 2 2 2 3 2 1 3 3 3 3 2 2 1 0 1 1 2 0 1 3 4 4 2 2 3 3 4 3 3 3 3 3 4 3 3 3 2 2 2 3 4 3 2 1 1 2 0 0 2 18 58 83 86 85 81 78 73 48 24 47 81 87 68 37 50 72 77 81 84 84 83 71 34 7 0 0 0 1 1 0 
2 2 2 2 2 2 2 2 2 2 2 2 2 2 2 2 2 2 2 2 2 2 2 2 2 2 2 2 2 2 2 2 2 2 2 2 2 2 2 2 2 2 2 2 2 2 2 2 3 2 3 3 2 3 4 3 2 1 1 2 2 0 0 2 1 1 2 2 1 2 2 2 2 2 2 3 4 2 3 4 4 3 2 3 3 2 3 5 3 2 3 2 1 3 0 0 4 31 70 85 84 83 79 76 74 74 57 46 75 86 73 70 78 76 75 78 82 83 83 72 38 8 0 0 1 1 0 1 
2 2 2 2 2 2 2 2 2 2 2 2 2 2 2 2 2 2 2 2 2 2 2 2 2 2 2 2 2 2 2 2 2 2 2 2 2 2 2 2 2 2 2 2 2 2 2 3 3 2 2 2 2 1 3 2 3 2 1 2 2 1 0 1 0 0 2 2 1 1 1 3 0 0 1 2 3 2 3 3 3 4 2 3 4 4 3 2 2 1 1 1 1 1 0 0 5 35 74 84 81 79 78 79 79 70 40 28 67 82 57 57 78 81 77 79 81 82 80 60 25 5 0 0 2 2 2 1 
2 2 2 2 2 2 2 2 2 2 2 2 2 2 2 2 2 2 2 2 2 2 2 2 2 2 2 2 2 2 2 2 2 2 2 2 2 2 2 2 2 2 2 2 2 2 2 3 2 3 2 2 2 3 3 3 2 3 2 2 2 2 1 1 1 0 0 1 2 1 1 2 1 1 1 1 2 1 1 2 2 1 2 2 3 2 1 1 2 2 1 2 1 1 0 0 14 54 81 85 82 81 74 53 31 12 3 19 63 77 38 18 49 76 81 82 83 83 73 40 11 2 0 1 1 1 0 1 
2 2 2 2 2 2 2 2 2 2 2 2 2 2 2 2 2 2 2 2 2 2 2 2 2 2 2 2 2 2 2 2 2 2 2 2 2 2 2 2 2 2 2 2 2 2 3 3 2 3 2 2 3 3 3 3 2 2 2 1 2 3 3 2 2 3 2 1 2 1 2 1 2 2 1 1 1 0 2 1 1 1 2 2 2 1 1 2 2 2 1 2 1 2 6 27 61 82 84 84 83 84 75 40 7 0 0 9 53 74 34 16 51 80 84 83 84 83 74 39 8 1 1 1 1 1 2 1 
2 2 2 2 2 2 2 2 2 2 2 2 2 2 2 2 2 2 2 2 2 2 2 2 2 2 2 2 2 2 2 2 2 2 2 2 2 2 2 2 2 2 2 2 2 2 2 2 3 2 2 1 2 2 3 2 2 3 1 3 3 1 1 2 3 4 3 3 1 2 2 2 1 1 1 0 1 3 1 1 1 1 2 3 2 2 3 1 0 1 1 2 8 36 68 83 85 84 84 84 82 71 40 10 0 0 0 9 52 75 36 9 29 68 85 85 83 84 84 79 58 28 7 0 0 0 1 2 
2 2 2 2 2 2 2 2 2 2 2 2 2 2 2 2 2 2 2 2 2 2 2 2 2 2 2 2 2 2 2 2 2 2 2 2 2 2 2 2 2 2 2 2 2 1 2 4 2 2 2 2 2 2 1 3 2 2 3 2 2 2 2 2 3 4 4 4 2 2 1 1 2 1 2 2 1 2 1 2 1 1 1 3 2 2 3 1 1 1 2 12 47 81 88 86 85 85 83 73 46 14 1 0 0 0 0 6 46 78 53 13 3 20 54 80 84 82 84 85 86 82 55 17 1 0 1 2 
2 2 2 2 2 2 2 2 2 2 2 2 2 2 2 2 2 2 2 2 2 2 2 2 2 2 2 2 2 2 2 2 2 2 2 2 2 2 2 2 2 2 2 2 2 2 3 3 4 3 3 2 2 1 1 1 2 2 2 2 3 2 2 2 3 4 3 3 3 3 3 1 2 1 2 3 3 3 3 2 1 3 1 2 3 2 2 2 1 1 2 8 42 81 89 87 87 86 69 40 16 1 0 0 0 0 1 0 13 52 82 67 24 1 1 9 33 62 81 85 85 86 88 83 52 12 1 1 
2 2 2 2 2 2 2 2 2 2 2 2 2 2 2 2 2 2 2 2 2 2 2 2 2 2 2 2 2 2 2 2 2 2 2 2 2 2 2 2 2 2 2 2 2 2 2 2 3 2 1 2 2 1 1 1 3 1 2 1 1 2 3 3 3 3 2 4 3 4 3 4 3 1 2 3 2 2 3 2 2 1 2 2 2 2 3 2 1 1 3 18 62 87 89 88 87 65 23 3 0 0 0 0 2 11 22 34 52 75 88 85 64 26 5 0 0 5 25 63 85 88 88 89 80 40 6 1 
2 2 2 2 2 2 2 2 2 2 2 2 2 2 2 2 2 2 2 2 2 2 2 2 2 2 2 2 2 2 2 2 2 2 2 2 2 2 2 2 2 2 2 2 2 2 3 3 2 2 3 2 2 2 2 3 2 3 2 1 3 3 2 3 3 3 3 4 4 3 4 3 3 3 3 3 2 2 2 2 3 2 1 3 3 1 3 3 1 1 1 14 56 85 89 89 79 42 9 0 0 0 0 11 47 74 83 85 86 87 89 89 88 80 59 32 8 0 2 22 61 84 87 88 81 46 8 1 
2 2 2 2 2 2 2 2 2 2 2 2 2 2 2 2 2 2 2 2 2 2 2 2 2 2 2 2 2 2 2 2 2 2 2 2 2 2 2 2 2 2 2 2 2 2 2 2 3 3 2 2 2 3 2 2 2 2 2 3 2 4 2 2 3 3 4 3 4 4 4 4 4 3 3 3 2 3 3 3 3 2 2 2 1 1 2 3 2 1 1 5 18 45 65 67 51 25 9 3 3 10 31 62 83 86 84 83 85 85 85 86 86 85 84 74 42 16 13 17 34 61 76 73 50 17 2 1 
2 2 2 2 2 2 2 2 2 2 2 2 2 2 2 2 2 2 2 2 2 2 2 2 2 2 2 2 2 2 2 2 2 2 2 2 2 2 2 2 2 2 2 2 2 2 2 3 3 1 2 3 3 3 3 2 3 3 2 3 4 3 3 3 4 3 3 3 4 3 4 4 4 4 4 3 3 2 2 2 2 4 2 3 1 2 3 3 1 2 2 1 1 2 6 10 10 11 19 38 63 80 85 85 85 86 85 84 86 86 85 86 86 86 87 86 85 78 65 50 38 32 28 19 7 0 1 1 
2 2 2 2 2 2 2 2 2 2 2 2 2 2 2 2 2 2 2 2 2 2 2 2 2 2 2 2 2 2 2 2 2 2 2 2 2 2 2 2 2 2 2 2 2 2 2 3 3 2 2 3 3 2 3 3 3 3 2 3 3 2 3 3 3 4 3 4 4 3 4 4 5 4 4 3 2 3 3 2 2 3 1 3 3 2 2 2 2 3 3 1 2 1 1 2 1 8 33 68 84 85 83 82 83 85 85 86 86 87 86 87 86 84 84 84 86 85 67 36 13 3 0 0 0 0 0 1 
2 2 2 2 2 2 2 2 2 2 2 2 2 2 2 2 2 2 2 2 2 2 2 2 2 2 2 2 2 2 2 2 2 2 2 2 2 2 2 2 2 2 2 2 2 2 2 3 3 4 3 2 2 2 3 2 3 3 3 3 4 3 4 4 4 5 5 3 3 4 4 4 4 4 5 2 2 3 3 3 3 3 2 2 2 3 2 2 2 2 2 3 2 1 1 3 16 43 72 83 83 82 81 83 82 84 85 84 85 85 85 85 85 83 82 80 81 82 75 55 31 13 3 0 0 0 0 1 
2 2 2 2 2 2 2 2 2 2 2 2 2 2 2 2 2 2 2 2 2 2 2 2 2 2 2 2 2 2 2 2 2 2 2 2 2 2 2 2 2 2 2 2 2 2 3 2 3 3 3 2 3 4 3 3 3 4 4 2 3 4 3 3 5 6 5 3 3 4 4 5 5 4 4 3 2 3 3 3 3 3 3 3 2 2 2 2 2 2 0 1 1 3 8 25 55 76 84 84 82 83 84 84 84 84 84 84 85 84 83 84 83 83 82 80 80 81 82 82 76 64 42 22 9 2 0 0 
2 2 2 2 2 2 2 2 2 2 2 2 2 2 2 2 2 2 2 2 2 2 2 2 2 2 2 2 2 2 2 2 2 2 2 2 2 2 2 2 2 2 2 2 2 2 3 4 2 3 3 4 4 4 5 8 5 4 4 4 3 4 3 3 4 4 4 4 4 3 4 4 3 3 2 2 3 2 2 2 3 3 3 2 2 3 3 2 1 2 1 1 5 19 42 67 83 85 84 84 83 83 84 84 83 85 85 85 84 83 83 84 84 84 83 83 82 81 82 82 82 82 81 72 57 38 20 6 
2 2 2 2 2 2 2 2 2 2 2 2 2 2 2 2 2 2 2 2 2 2 2 2 2 2 2 2 2 2 2 2 2 2 2 2 2 2 2 2 2 2 2 2 2 2 3 3 2 2 3 3 2 2 4 4 3 4 4 2 3 3 2 3 3 3 3 3 3 1 3 3 3 2 2 3 3 3 2 1 3 3 2 3 1 3 2 1 2 2 2 10 31 60 79 83 83 84 84 83 85 84 85 83 84 83 85 84 82 82 83 84 84 84 85 84 83 81 81 83 82 82 81 80 79 76 65 46 
2 2 2 2 2 2 2 2 2 2 2 2 2 2 2 2 2 2 2 2 2 2 2 2 2 2 2 2 2 2 2 2 2 2 2 2 2 2 2 2 2 2 2 2 2 2 3 3 4 3 3 3 3 4 5 4 4 4 3 1 1 1 1 1 3 2 1 2 1 2 2 2 2 3 2 3 3 3 3 2 3 3 3 3 2 3 2 2 2 2 13 37 67 82 84 85 84 83 81 80 83 83 84 84 83 88 100 108 106 100 92 88 93 104 115 113 100 85 79 77 77 79 80 77 78 80 79 76 
2 2 2 2 2 2 2 2 2 2 2 2 2 2 2 2 2 2 2 2 2 2 2 2 2 2 2 2 2 2 2 2 2 2 2 2 2 2 2 2 2 2 2 2 2 3 3 3 4 3 3 3 3 2 3 2 3 4 2 1 1 2 2 1 2 1 1 2 3 1 3 1 1 3 4 4 4 3 4 3 2 2 2 2 3 2 2 1 1 7 31 60 80 85 86 85 83 83 80 82 86 91 90 91 101 125 157 178 181 167 138 123 140 173 190 187 159 118 93 85 82 82 83 78 77 76 80 82 
2 2 2 2 2 2 2 2 2 2 2 2 2 2 2 2 2 2 2 2 2 2 2 2 2 2 2 2 2 2 2 2 2 2 2 2 2 2 2 2 2 2 2 2 2 2 3 4 3 3 3 3 4 3 2 3 2 2 2 2 1 1 2 2 2 1 1 1 2 1 2 3 3 3 3 4 4 5 5 4 4 2 2 2 3 3 2 2 3 15 46 72 82 85 85 82 80 79 80 86 105 129 132 116 116 152 199 223 228 219 175 149 177 216 229 230 211 154 102 93 111 120 99 68 57 49 19 41 
2 2 2 2 2 2 2 2 2 2 2 2 2 2 2 2 2 2 2 2 2 2 2 2 2 2 2 2 2 2 2 2 2 2 2 2 2 2 2 2 2 2 2 2 2 3 4 3 4 3 3 2 3 3 3 2 2 1 3 3 3 1 0 1 2 2 2 2 2 1 1 2 2 4 4 4 3 3 3 4 4 2 1 1 1 3 2 3 4 18 49 76 86 89 85 81 79 79 81 102 158 204 208 169 136 170 223 229 229 233 200 159 183 228 232 228 231 198 135 151 202 209 172 122 83 75 78 78 
2 2 2 2 2 2 2 2 2 2 2 2 2 2 2 2 2 2 2 2 2 2 2 2 2 2 2 2 2 2 2 2 2 2 2 2 2 2 2 2 2 2 2 2 2 2 4 5 5 4 4 2 0 0 0 0 0 0 0 2 0 0 0 0 0 1 0 1 1 0 0 0 0 5 6 2 0 0 0 0 0 0 1 3 5 10 17 18 13 23 52 81 92 102 88 74 97 119 119 144 204 230 231 205 148 158 216 223 222 224 186 122 130 193 217 221 231 219 172 189 212 164 115 102 100 124 151 152 
2 2 2 2 2 2 2 2 2 2 2 2 2 2 2 2 2 2 2 2 2 2 2 2 2 2 2 2 2 2 2 2 2 2 2 2 2 2 2 2 2 2 2 2 2 0 3 8 10 5 4 5 3 4 3 0 7 4 5 6 4 4 4 8 13 12 8 1 0 0 0 0 0 0 15 7 0 0 0 0 0 7 5 0 4 14 18 23 27 35 50 92 133 158 139 108 137 178 172 181 212 246 255 255 210 204 252 252 240 234 200 123 108 175 214 228 244 243 207 188 161 107 51 40 123 200 246 255 
2 2 2 2 2 2 2 2 2 2 2 2 2 2 2 2 2 2 2 2 2 2 2 2 2 2 2 2 2 2 2 2 2 2 2 2 2 2 2 2 2 2 2 2 2 0 0 0 5 3 1 4 9 17 22 28 34 38 38 33 29 29 33 35 29 21 6 0 0 0 0 0 0 0 0 0 0 0 0 0 0 0 17 38 48 57 58 50 43 38 35 60 111 141 93 27 71 174 168 89 118 202 239 177 122 134 171 176 156 126 90 45 33 64 90 92 85 78 64 59 55 20 0 0 0 90 186 189 
2 2 2 2 2 2 2 2 2 2 2 2 2 2 2 2 2 2 2 2 2 2 2 2 2 2 2 2 2 2 2 2 2 2 2 2 2 2 2 2 2 2 2 2 2 1 1 1 1 2 1 3 4 4 5 7 7 7 7 8 9 8 7 6 4 2 1 0 0 0 0 0 0 0 0 0 0 0 0 0 2 0 0 2 5 8 10 12 9 5 6 12 13 11 2 16 89 176 138 41 55 91 53 20 14 12 11 14 16 11 4 1 1 6 10 10 9 8 7 5 8 13 9 4 11 78 175 178 
2 2 2 2 2 2 2 2 2 2 2 2 2 2 2 2 2 2 2 2 2 2 2 2 2 2 2 2 2 2 2 2 2 2 2 2 2 2 2 2 2 2 2 2 2 2 2 1 2 1 1 1 2 1 1 2 2 1 2 3 2 1 1 1 1 1 2 3 2 3 2 2 2 2 2 2 1 1 1 2 1 2 3 3 2 2 2 2 2 2 2 3 3 4 3 5 9 8 2 0 0 1 2 3 3 3 6 9 12 10 11 11 13 14 15 16 15 14 11 6 4 2 0 0 0 2 15 25 
2 2 2 2 2 2 2 2 2 2 2 2 2 2 2 2 2 2 2 2 2 2 2 2 2 2 2 2 2 2 2 2 2 2 2 2 2 2 2 2 2 2 2 2 2 3 4 3 3 2 2 3 4 4 3 4 4 3 1 3 4 3 4 5 4 2 4 3 4 6 4 4 5 4 5 3 4 2 3 3 5 4 4 3 5 5 3 3 2 1 2 1 0 2 0 3 11 17 21 21 18 21 26 24 20 30 49 62 72 68 60 50 51 58 67 77 80 78 78 69 53 35 18 3 0 0 0 0 
2 2 2 2 2 2 2 2 2 2 2 2 2 2 2 2 2 2 2 2 2 2 2 2 2 2 2 2 2 2 2 2 2 2 2 2 2 2 2 2 2 2 2 2 2 0 0 0 0 0 0 0 0 0 0 0 0 0 0 0 0 0 0 0 0 0 0 0 1 0 2 5 10 14 12 12 11 5 7 7 10 17 18 17 19 23 22 20 17 15 12 11 1 10 30 54 78 76 65 50 36 29 27 33 44 51 56 58 65 75 75 70 74 77 85 88 71 59 56 40 29 42 51 30 12 1 0 0 
2 2 2 2 2 2 2 2 2 2 2 2 2 2 2 2 2 2 2 2 2 2 2 2 2 2 2 2 2 2 2 2 2 2 2 2 2 2 2 2 2 2 2 2 2 2 5 9 10 5 0 0 0 0 0 0 0 0 0 0 0 0 0 0 0 0 0 0 0 0 0 0 0 0 0 0 0 0 0 0 5 18 32 56 80 104 108 103 82 75 72 66 54 82 122 140 120 84 52 12 0 0 0 0 0 0 0 7 42 60 64 72 88 114 118 94 70 61 54 34 15 23 51 58 41 16 2 0 
2 2 2 2 2 2 2 2 2 2 2 2 2 2 2 2 2 2 2 2 2 2 2 2 2 2 2 2 2 2 2 2 2 2 2 2 2 2 2 2 2 2 2 2 2 0 0 0 0 0 0 0 0 0 0 0 0 4 11 18 20 16 13 12 8 0 0 0 0 0 0 0 0 0 0 0 3 4 9 12 19 20 19 20 15 15 16 18 9 6 3 4 24 58 96 117 117 107 80 56 42 36 35 44 51 52 53 58 73 79 81 80 78 86 87 74 60 62 71 66 55 50 66 67 49 20 0 0 
2 2 2 2 2 2 2 2 2 2 2 2 2 2 2 2 2 2 2 2 2 2 2 2 2 2 2 2 2 2 2 2 2 2 2 2 2 2 2 2 2 2 2 2 2 1 0 0 0 0 0 0 0 0 0 1 5 7 6 5 4 4 7 8 8 7 7 6 3 3 5 10 15 21 31 33 23 12 6 2 0 0 0 3 0 4 8 6 1 1 3 8 21 37 69 95 98 84 61 46 54 70 76 80 86 86 77 74 77 77 74 72 72 76 77 73 71 72 75 79 65 61 86 70 35 12 0 0 
2 2 2 2 2 2 2 2 2 2 2 2 2 2 2 2 2 2 2 2 2 2 2 2 2 2 2 2 2 2 2 2 2 2 2 2 2 2 2 2 2 2 2 2 2 2 2 2 2 2 2 2 2 3 2 2 3 3 3 3 3 2 2 3 3 4 5 4 4 3 3 3 2 1 1 2 1 2 3 4 3 2 3 5 7 8 6 5 4 3 2 5 9 23 50 76 86 84 81 81 81 80 80 79 78 78 79 80 81 81 81 80 80 78 78 79 80 81 80 80 80 77 71 51 25 8 0 0 
2 2 2 2 2 2 2 2 2 2 2 2 2 2 2 2 2 2 2 2 2 2 2 2 2 2 2 2 2 2 2 2 2 2 2 2 2 2 2 2 2 2 2 2 2 2 2 2 0 1 2 1 1 1 1 0 1 2 2 2 3 2 3 2 1 2 2 2 1 2 2 2 2 2 2 2 2 2 3 3 3 4 3 4 4 4 4 3 2 2 2 1 2 8 20 36 55 67 75 81 83 84 84 84 83 82 83 84 84 83 83 82 82 81 82 82 82 82 81 80 79 72 58 35 13 4 1 0 
2 2 2 2 2 2 2 2 2 2 2 2 2 2 2 2 2 2 2 2 2 2 2 2 2 2 2 2 2 2 2 2 2 2 2 2 2 2 2 2 2 2 2 2 2 2 2 1 1 2 2 2 2 2 2 2 2 3 3 3 2 2 2 3 2 2 2 2 2 2 3 2 3 3 3 3 3 2 2 2 4 4 4 4 3 3 3 2 2 2 2 1 3 3 3 5 10 17 27 39 50 58 65 69 73 77 78 79 81 83 84 82 82 84 82 82 82 82 81 78 70 52 32 15 5 0 0 1 
2 2 2 2 2 2 2 2 2 2 2 2 2 2 2 2 2 2 2 2 2 2 2 2 2 2 2 2 2 2 2 2 2 2 2 2 2 2 2 2 2 2 2 2 2 2 1 1 3 3 2 2 3 2 2 2 2 2 2 2 2 1 2 2 2 3 3 2 2 3 3 2 2 3 2 2 2 3 2 2 3 4 4 3 3 4 3 2 3 3 2 3 3 3 2 2 1 2 5 10 17 25 30 37 46 53 59 63 68 73 76 77 78 78 78 78 77 75 71 62 46 29 13 4 1 0 1 1 
2 2 2 2 2 2 2 2 2 2 2 2 2 2 2 2 2 2 2 2 2 2 2 2 2 2 2 2 2 2 2 2 2 2 2 2 2 2 2 2 2 2 2 2 2 2 2 1 2 2 2 2 2 2 2 2 1 2 3 3 2 2 2 2 2 3 2 3 3 3 3 2 3 3 2 2 2 2 2 2 2 3 3 3 3 3 3 3 3 4 2 2 3 3 2 1 1 1 2 3 4 9 14 20 28 36 46 54 62 66 70 74 75 76 76 75 73 68 60 49 33 17 6 1 1 0 0 1 
2 2 2 2 2 2 2 2 2 2 2 2 2 2 2 2 2 2 2 2 2 2 2 2 2 2 2 2 2 2 2 2 2 2 2 2 2 2 2 2 2 2 2 2 2 2 2 1 2 2 2 2 2 2 2 3 2 2 2 2 2 2 2 2 2 2 2 3 2 3 2 2 2 3 2 2 2 2 2 2 2 3 3 3 4 2 3 3 3 3 1 2 2 2 2 1 1 1 1 2 3 4 9 18 28 39 50 58 64 69 72 74 74 75 75 76 71 63 56 42 25 11 2 0 0 0 0 1 
2 2 2 2 2 2 2 2 2 2 2 2 2 2 2 2 2 2 2 2 2 2 2 2 2 2 2 2 2 2 2 2 2 2 2 2 2 2 2 2 2 2 2 2 2 2 2 2 2 2 2 2 2 2 2 2 2 2 1 2 2 1 2 3 2 3 2 2 2 3 3 2 2 3 2 2 2 2 2 2 2 2 3 4 3 4 4 3 3 2 1 2 2 2 1 1 1 1 0 1 2 5 12 24 36 46 56 64 70 73 74 76 76 76 76 76 72 66 57 45 29 14 3 0 0 0 0 1 
2 2 2 2 2 2 2 2 2 2 2 2 2 2 2 2 2 2 2 2 2 2 2 2 2 2 2 2 2 2 2 2 2 2 2 2 2 2 2 2 2 2 2 2 2 2 2 2 2 2 2 2 2 2 1 2 2 2 1 2 1 2 2 2 2 2 3 2 2 2 2 2 3 2 1 1 2 2 2 2 2 3 3 4 4 3 3 3 4 3 2 2 1 2 1 0 0 0 0 2 5 12 22 35 49 60 66 70 75 78 76 76 78 78 79 77 73 67 59 47 35 22 9 2 0 0 0 0 
2 2 2 2 2 2 2 2 2 2 2 2 2 2 2 2 2 2 2 2 2 2 2 2 2 2 2 2 2 2 2 2 2 2 2 2 2 2 2 2 2 2 2 2 2 2 2 1 2 2 2 1 2 2 1 2 2 1 1 1 2 2 1 2 1 2 3 2 2 2 2 1 2 2 2 2 2 2 1 2 2 3 3 3 4 4 4 3 3 3 3 2 1 2 1 0 0 0 1 4 8 18 33 45 57 66 73 76 77 79 78 77 78 77 77 76 73 68 61 52 41 28 16 7 2 0 0 0 
2 2 2 2 2 2 2 2 2 2 2 2 2 2 2 2 2 2 2 2 2 2 2 2 2 2 2 2 2 2 2 2 2 2 2 2 2 2 2 2 2 2 2 2 2 2 2 2 2 2 2 2 2 2 2 3 2 1 1 2 2 1 2 2 2 1 3 3 2 2 1 3 3 2 2 2 2 2 2 3 3 3 3 4 3 3 2 3 3 3 2 3 2 1 1 0 1 0 0 3 11 22 38 52 63 72 76 78 79 78 78 78 77 76 74 72 70 66 60 52 44 32 21 10 2 0 0 0 
2 2 2 2 2 2 2 2 2 2 2 2 2 2 2 2 2 2 2 2 2 2 2 2 2 2 2 2 2 2 2 2 2 2 2 2 2 2 2 2 2 2 2 2 2 2 2 2 2 2 2 2 3 2 2 2 2 2 2 3 2 2 2 2 2 2 3 2 2 1 2 2 2 2 2 3 2 2 2 2 2 3 3 4 4 4 3 3 4 3 3 3 3 3 2 0 0 0 0 4 11 22 38 53 63 72 76 78 79 78 77 76 74 72 69 66 64 60 53 45 36 26 15 7 1 0 0 0 
2 2 2 2 2 2 2 2 2 2 2 2 2 2 2 2 2 2 2 2 2 2 2 2 2 2 2 2 2 2 2 2 2 2 2 2 2 2 2 2 2 2 2 2 2 2 2 3 3 2 1 2 3 2 2 2 2 2 2 3 2 2 2 2 1 2 3 2 2 3 3 2 2 3 3 1 2 2 2 2 2 2 3 3 3 3 4 4 3 2 3 3 2 3 2 1 1 1 1 3 9 20 32 46 56 64 69 72 73 74 71 68 64 61 55 51 48 43 35 28 21 13 6 3 0 0 0 0 
2 2 2 2 2 2 2 2 2 2 2 2 2 2 2 2 2 2 2 2 2 2 2 2 2 2 2 2 2 2 2 2 2 2 2 2 2 2 2 2 2 2 2 2 2 2 2 2 3 3 2 2 2 2 2 3 2 2 2 2 2 2 2 2 1 2 3 2 2 3 3 2 3 3 2 2 2 2 2 2 2 2 3 3 3 3 3 3 4 3 3 2 2 3 3 2 2 2 1 3 7 14 22 33 42 50 56 61 61 62 60 55 48 41 35 29 27 22 17 12 8 5 2 0 0 0 0 1 
2 2 2 2 2 2 2 2 2 2 2 2 2 2 2 2 2 2 2 2 2 2 2 2 2 2 2 2 2 2 2 2 2 2 2 2 2 2 2 2 2 2 2 2 2 2 2 2 3 2 1 2 2 2 2 3 2 1 1 2 1 1 2 2 2 2 2 2 2 3 2 2 3 3 3 2 2 2 2 2 2 3 3 3 3 4 3 3 4 3 3 3 3 3 3 2 2 2 2 2 4 6 10 16 23 28 34 39 39 38 36 32 25 19 13 10 8 6 5 2 0 1 1 0 1 1 0 2 
2 2 2 2 2 2 2 2 2 2 2 2 2 2 2 2 2 2 2 2 2 2 2 2 2 2 2 2 2 2 2 2 2 2 2 2 2 2 2 2 2 2 2 2 2 2 2 1 2 2 2 2 1 1 2 2 1 1 2 2 1 2 2 2 2 2 2 2 2 2 2 2 2 2 2 2 3 3 3 2 2 2 3 3 2 3 4 3 3 3 4 4 3 3 2 1 2 2 2 2 2 3 3 3 6 7 8 9 9 9 8 7 5 4 2 2 1 1 0 0 0 1 2 1 1 1 1 2 
