P2
128 99
255
0 0 0 0 0 0 0 0 0 0 0 0 0 0 0 0 0 0 0 0 0 0 0 0 0 0 0 0 0 0 0 0 0 0 0 0 0 0 0 0 0 0 0 0 0 0 0 0 0 0 0 0 0 0 0 0 0 0 0 0 0 0 0 0 0 0 0 0 0 0 0 0 0 0 0 0 0 0 0 0 0 0 0 0 0 0 0 0 0 0 0 0 0 0 0 0 0 0 0 0 0 0 0 0 0 0 0 0 0 0 0 0 0 0 0 0 0 0 0 0 0 0 0 0 0 0 0 0 
0 0 0 0 0 0 0 0 0 0 0 0 0 0 0 0 0 0 0 0 0 0 0 0 0 0 0 0 0 0 0 0 0 0 0 0 0 0 0 0 0 0 0 0 0 0 0 0 0 0 0 0 0 0 0 0 0 0 0 0 0 0 0 0 0 0 0 0 0 0 0 0 0 0 0 0 0 0 0 0 0 0 0 0 0 0 0 0 0 0 0 0 0 0 0 0 0 0 0 0 0 0 0 0 0 0 0 0 0 0 0 0 0 0 0 0 0 0 0 0 0 0 0 0 0 0 0 0 
0 0 0 0 0 0 0 0 0 0 0 0 0 0 0 0 0 0 0 0 0 0 0 0 0 0 0 0 0 0 0 0 0 0 0 0 0 0 0 0 0 0 0 0 0 0 0 0 0 0 0 0 0 0 0 0 0 0 0 0 0 0 0 0 0 0 0 0 0 0 0 0 0 0 0 0 0 0 0 0 0 0 0 0 0 0 0 0 0 0 0 0 0 0 0 0 0 0 0 0 0 0 0 0 0 0 0 0 0 0 0 0 0 0 0 0 0 0 0 0 0 0 0 0 0 0 0 0 
0 0 0 0 0 0 0 0 0 0 0 0 0 0 0 0 0 0 0 0 0 0 0 0 0 0 0 0 0 0 0 0 0 0 0 0 0 0 0 0 0 0 0 0 0 0 0 0 0 0 0 0 0 0 0 0 0 0 0 0 0 0 0 0 0 0 0 0 0 0 0 0 0 0 0 0 0 0 0 0 0 0 0 0 0 0 0 0 0 0 0 0 0 0 0 0 0 0 0 0 0 0 0 0 0 0 0 0 0 0 0 0 0 0 0 0 0 0 0 0 0 0 0 0 0 0 0 0 
0 0 0 0 0 0 0 0 0 0 0 0 0 0 0 0 0 0 0 0 0 0 0 0 0 0 0 0 0 0 0 0 0 0 0 0 0 0 0 0 0 0 0 0 0 0 0 0 3 16 33 46 53 53 47 35 19 4 0 0 0 0 0 0 0 0 0 0 0 0 0 0 0 0 0 0 0 0 0 0 0 0 0 0 0 0 0 0 0 0 0 0 0 0 0 0 0 0 0 0 0 0 0 0 0 0 0 0 0 0 0 0 0 0 0 0 0 0 0 0 0 0 0 0 0 0 0 0 
0 0 0 0 0 0 0 0 0 0 0 0 0 0 0 0 0 0 0 0 0 0 0 0 0 0 0 0 0 0 0 0 0 0 0 0 0 0 0 0 0 0 0 0 10 49 75 85 90 90 90 84 77 76 81 86 89 90 85 76 53 19 0 0 0 0 0 0 0 0 0 0 0 0 0 0 0 0 0 0 0 0 0 0 0 0 0 0 0 0 0 0 0 0 0 0 0 0 0 0 0 0 0 0 0 0 0 0 0 0 0 0 0 0 0 0 0 0 0 0 0 0 0 0 0 0 0 0 
0 0 0 0 0 0 0 0 0 0 0 0 0 0 0 0 0 0 0 0 0 0 0 0 0 0 0 0 0 0 0 0 0 0 0 0 0 0 0 0 0 8 52 83 94 87 78 72 74 77 81 82 82 81 82 83 81 78 75 77 84 84 77 60 26 0 0 0 0 0 0 0 0 0 0 0 0 0 0 0 0 0 0 0 0 0 0 0 0 0 0 0 0 0 0 0 0 0 0 0 0 0 0 0 0 0 0 0 0 0 0 0 0 0 0 0 0 0 0 0 0 0 0 0 0 0 0 0 
0 0 0 0 0 0 0 0 0 0 0 0 0 0 0 0 0 0 0 0 0 0 0 0 0 0 0 0 0 0 0 0 0 0 0 0 0 0 0 22 71 87 83 74 70 73 63 53 52 46 47 54 48 34 32 38 63 85 83 72 68 67 74 83 87 75 52 10 0 0 0 0 0 0 0 0 0 0 0 0 0 0 0 0 0 0 0 0 0 0 0 0 0 0 0 0 0 0 0 0 0 0 0 0 0 0 0 0 0 0 0 0 0 0 0 0 0 0 0 0 0 0 0 0 0 0 0 0 
0 0 0 0 0 0 0 0 0 0 0 0 0 0 0 0 0 0 0 0 0 0 0 0 0 0 0 0 0 0 0 0 0 0 0 0 0 25 75 80 65 60 61 64 49 41 43 36 33 34 35 36 36 31 33 35 36 39 52 81 80 68 63 60 62 73 87 84 60 11 0 0 0 0 0 0 0 0 0 0 0 0 0 0 0 0 0 0 0 0 0 0 0 0 0 0 0 0 0 0 0 0 0 0 0 0 0 0 0 0 0 0 0 0 0 0 0 0 0 0 0 0 0 0 0 0 0 0 
0 0 0 0 0 0 0 0 0 0 0 0 0 0 0 0 0 0 0 0 0 0 0 0 0 0 0 0 0 0 0 0 0 0 0 12 71 76 56 51 51 56 43 31 35 34 28 28 31 31 29 33 36 32 32 33 36 34 41 49 63 78 80 73 66 59 59 71 86 85 51 3 0 0 0 0 0 0 0 0 0 0 0 0 0 0 0 0 0 0 0 0 0 0 0 0 0 0 0 0 0 0 0 0 0 0 0 0 0 0 0 0 0 0 0 0 0 0 0 0 0 0 0 0 0 0 0 0 
0 0 0 0 0 0 0 0 0 0 0 0 0 0 0 0 0 0 0 0 0 0 0 0 0 0 0 0 0 0 0 0 0 0 55 75 58 48 47 52 48 34 33 34 30 32 31 28 29 30 28 29 29 30 33 37 36 36 39 40 42 54 67 78 79 70 61 59 58 75 91 79 23 0 0 0 0 0 0 0 0 0 0 0 0 0 0 0 0 0 0 0 0 0 0 0 0 0 0 0 0 0 0 0 0 0 0 0 0 0 0 0 0 0 0 0 0 0 0 0 0 0 0 0 0 0 0 0 
0 0 0 0 0 0 0 0 0 0 0 0 0 0 0 0 0 0 0 0 0 0 0 0 0 0 0 0 0 0 0 0 25 73 54 50 52 51 51 38 37 35 31 28 29 31 35 32 34 34 31 30 27 27 36 42 39 35 34 36 42 43 49 58 68 76 74 66 60 60 68 81 86 50 0 0 0 0 0 0 0 0 0 0 0 0 0 0 0 0 0 0 0 0 0 0 0 0 0 0 0 0 0 0 0 0 0 0 0 0 0 0 0 0 0 0 0 0 0 0 0 0 0 0 0 0 0 0 
0 0 0 0 0 0 0 0 0 0 0 0 0 0 0 0 0 0 0 0 0 0 0 0 0 0 0 0 0 0 0 53 60 49 48 53 54 43 33 35 37 36 33 32 28 34 37 32 36 35 28 21 18 19 25 32 30 31 36 35 35 42 45 47 52 57 64 74 72 62 54 58 67 74 58 5 0 0 0 0 0 0 0 0 0 0 0 0 0 0 0 0 0 0 0 0 0 0 0 0 0 0 0 0 0 0 0 0 0 0 0 0 0 0 0 0 0 0 0 0 0 0 0 0 0 0 0 0 
0 0 0 0 0 0 0 0 0 0 0 0 0 0 0 0 0 0 0 0 0 0 0 0 0 0 0 0 0 5 60 47 52 58 56 55 41 39 36 35 36 32 29 29 29 32 34 33 33 34 26 21 18 20 22 26 35 37 39 39 33 34 38 45 46 45 47 54 65 73 66 55 51 50 66 61 9 0 0 0 0 0 0 0 0 0 0 0 0 0 0 0 0 0 0 0 0 0 0 0 0 0 0 0 0 0 0 0 0 0 0 0 0 0 0 0 0 0 0 0 0 0 0 0 0 0 0 0 
0 0 0 0 0 0 0 0 0 0 0 0 0 0 0 0 0 0 0 0 0 0 0 0 0 0 0 0 13 53 39 52 59 63 45 38 37 37 39 32 31 32 32 33 29 26 23 27 27 24 21 16 13 16 18 18 20 26 29 29 31 33 36 38 37 40 44 39 40 49 59 65 61 50 48 62 59 12 0 0 0 0 0 0 0 0 0 0 0 0 0 0 0 0 0 0 0 0 0 0 0 0 0 0 0 0 0 0 0 0 0 0 0 0 0 0 0 0 0 0 0 0 0 0 0 0 0 0 
0 0 0 0 0 0 0 0 0 0 0 0 0 0 0 0 0 0 0 0 0 0 0 0 0 0 0 18 38 35 54 58 54 41 31 37 40 35 35 29 26 27 24 21 21 19 18 18 19 21 21 18 16 20 22 22 21 21 21 28 30 24 26 30 35 31 31 31 31 33 40 48 59 56 45 40 57 58 18 0 0 0 0 0 0 0 0 0 0 0 0 0 0 0 0 0 0 0 0 0 0 0 0 0 0 0 0 0 0 0 0 0 0 0 0 0 0 0 0 0 0 0 0 0 0 0 0 0 
0 0 0 0 0 0 0 0 0 0 0 0 0 0 0 0 0 0 0 0 0 0 0 0 0 0 25 33 35 52 62 48 33 33 34 32 31 31 27 26 27 22 20 22 20 19 18 15 19 19 19 13 12 14 14 14 14 16 15 16 20 20 25 28 21 18 21 24 28 31 27 31 36 57 56 43 48 58 55 25 0 0 0 0 0 0 0 0 0 0 0 0 0 0 0 0 0 0 0 0 0 0 0 0 0 0 0 0 0 0 0 0 0 0 0 0 0 0 0 0 0 0 0 0 0 0 0 0 
0 0 0 0 0 0 0 0 0 0 0 0 0 0 0 0 0 0 0 0 0 0 0 0 0 33 33 34 58 62 37 25 30 31 30 26 20 17 24 23 22 20 17 15 14 13 9 11 13 15 17 12 12 16 11 12 15 17 14 14 12 13 18 18 17 19 15 16 22 19 22 21 26 30 50 50 46 48 50 58 29 0 0 0 0 0 0 0 0 0 0 0 0 0 0 0 0 0 0 0 0 0 0 0 0 0 0 0 0 0 0 0 0 0 0 0 0 0 0 0 0 0 0 0 0 0 0 0 
0 0 0 0 0 0 0 0 0 0 0 0 0 0 0 0 0 0 0 0 0 0 0 2 38 33 31 50 57 32 26 25 28 28 25 15 17 18 19 17 13 12 11 10 13 14 11 11 10 12 14 8 9 14 12 13 12 11 12 13 17 17 15 11 9 11 13 16 16 18 14 17 22 22 26 40 53 50 51 47 59 24 0 0 0 0 0 0 0 0 0 0 0 0 0 0 0 0 0 0 0 0 0 0 0 0 0 0 0 0 0 0 0 0 0 0 0 0 0 0 0 0 0 0 0 0 0 0 
0 0 0 0 0 0 0 0 0 0 0 0 0 0 0 0 0 0 0 0 0 0 3 42 30 29 43 54 26 27 26 23 24 26 18 16 13 16 12 11 11 12 14 16 14 10 10 11 12 13 12 8 8 15 12 11 11 10 11 10 12 14 12 15 14 7 10 12 19 12 15 13 17 18 20 26 35 53 52 47 44 57 18 0 0 0 0 0 0 0 0 0 0 0 0 0 0 0 0 0 0 0 0 0 0 0 0 0 0 0 0 0 0 0 0 0 0 0 0 0 0 0 0 0 0 0 0 0 
0 0 0 0 0 0 0 0 0 0 0 0 0 0 0 0 0 0 0 0 0 4 42 28 27 40 53 28 25 20 20 19 18 16 15 10 12 14 10 12 11 10 11 9 9 7 6 6 9 10 5 6 9 11 10 7 8 8 5 5 10 9 9 11 12 15 9 10 13 17 11 14 16 18 18 19 26 29 52 47 46 45 54 10 0 0 0 0 0 0 0 0 0 0 0 0 0 0 0 0 0 0 0 0 0 0 0 0 0 0 0 0 0 0 0 0 0 0 0 0 0 0 0 0 0 0 0 0 
0 0 0 0 0 0 0 0 0 0 0 0 0 0 0 0 0 0 0 0 3 39 24 23 34 46 26 23 20 20 21 15 15 16 10 14 12 9 11 12 9 10 9 8 7 6 7 7 12 12 10 10 11 13 12 11 10 9 10 14 16 9 8 8 8 11 14 10 10 13 13 10 15 16 16 20 24 27 27 50 53 47 45 45 2 0 0 0 0 0 0 0 0 0 0 0 0 0 0 0 0 0 0 0 0 0 0 0 0 0 0 0 0 0 0 0 0 0 0 0 0 0 0 0 0 0 0 0 
0 0 0 0 0 0 0 0 0 0 0 0 0 0 0 0 0 0 0 2 36 24 20 28 39 25 21 19 19 19 16 15 14 12 12 12 10 11 11 9 11 9 8 9 10 9 9 7 7 5 5 8 11 13 11 8 6 6 6 9 13 13 13 7 6 7 10 15 11 13 13 13 12 15 16 16 22 24 21 29 58 54 46 49 31 0 0 0 0 0 0 0 0 0 0 0 0 0 0 0 0 0 0 0 0 0 0 0 0 0 0 0 0 0 0 0 0 0 0 0 0 0 0 0 0 0 0 0 
0 0 0 0 0 0 0 0 0 0 0 0 0 0 0 0 0 0 0 32 27 23 26 32 27 22 17 17 17 18 12 14 15 13 13 12 7 11 10 13 9 9 13 12 12 10 9 10 11 10 11 8 9 12 8 7 8 7 7 6 8 11 12 11 9 8 7 10 13 14 12 14 11 11 14 18 22 24 20 20 38 59 47 49 48 12 0 0 0 0 0 0 0 0 0 0 0 0 0 0 0 0 0 0 0 0 0 0 0 0 0 0 0 0 0 0 0 0 0 0 0 0 0 0 0 0 0 0 
0 0 0 0 0 0 0 0 0 0 0 0 0 0 0 0 0 0 22 29 21 24 31 27 22 19 17 15 16 17 14 15 13 13 12 7 12 12 12 8 7 9 12 12 8 9 9 7 8 8 10 7 6 4 4 6 5 6 6 9 10 8 11 12 11 10 9 9 12 11 11 12 12 11 15 18 19 18 19 19 23 42 48 47 51 37 0 0 0 0 0 0 0 0 0 0 0 0 0 0 0 0 0 0 0 0 0 0 0 0 0 0 0 0 0 0 0 0 0 0 0 0 0 0 0 0 0 0 
0 0 0 0 0 0 0 0 0 0 0 0 0 0 0 0 0 10 33 20 22 28 20 26 19 13 14 13 17 15 14 10 11 14 13 11 12 9 8 6 8 10 10 8 8 7 7 5 3 5 7 8 7 9 7 6 6 6 7 9 8 11 11 12 12 11 11 8 9 13 11 13 16 12 15 19 20 17 17 14 16 31 38 44 46 47 11 0 0 0 0 0 0 0 0 0 0 0 0 0 0 0 0 0 0 0 0 0 0 0 0 0 0 0 0 0 0 0 0 0 0 0 0 0 0 0 0 0 
0 0 0 0 0 0 0 0 0 0 0 0 0 0 0 0 0 30 23 22 28 19 20 22 11 12 11 15 18 16 13 12 13 11 12 9 6 8 7 9 9 7 7 7 6 5 3 5 6 8 10 12 11 11 9 10 9 10 8 7 4 8 11 10 10 9 7 8 7 12 12 15 16 14 12 20 22 18 17 13 13 23 27 39 45 47 28 0 0 0 0 0 0 0 0 0 0 0 0 0 0 0 0 0 0 0 0 0 0 0 0 0 0 0 0 0 0 0 0 0 0 0 0 0 0 0 0 0 
0 0 0 0 0 0 0 0 0 0 0 0 0 0 0 0 16 26 22 24 25 16 17 16 12 11 11 17 15 17 10 10 9 11 12 5 7 9 8 8 6 6 7 7 8 9 9 7 7 7 10 13 13 14 10 10 10 9 9 10 11 8 6 9 11 9 8 9 10 12 15 15 20 16 15 18 23 23 16 15 14 21 22 27 40 45 41 0 0 0 0 0 0 0 0 0 0 0 0 0 0 0 0 0 0 0 0 0 0 0 0 0 0 0 0 0 0 0 0 0 0 0 0 0 0 0 0 0 
0 0 0 0 0 0 0 0 0 0 0 0 0 0 0 0 30 23 21 28 19 18 13 14 11 9 12 14 16 13 13 13 10 12 8 9 7 6 4 3 8 7 9 11 10 10 12 12 12 9 8 11 12 9 5 6 7 8 8 9 10 11 11 9 8 9 7 11 12 13 12 16 16 16 17 18 21 19 14 14 14 20 20 27 38 45 45 7 0 0 0 0 0 0 0 0 0 0 0 0 0 0 0 0 0 0 0 0 0 0 0 0 0 0 0 0 0 0 0 0 0 0 0 0 0 0 0 0 
0 0 0 0 0 0 0 0 0 0 0 0 0 0 0 11 29 20 21 24 20 14 13 14 9 9 10 12 16 15 16 13 11 8 8 9 10 9 8 8 8 11 11 10 9 10 11 11 13 11 10 10 13 10 8 7 6 6 6 6 8 8 9 10 11 7 8 10 16 16 13 14 16 14 15 21 20 12 15 15 13 15 17 24 35 41 43 14 0 0 0 0 0 0 0 0 0 0 0 0 0 0 0 0 0 0 0 0 0 0 0 0 0 0 0 0 0 0 0 0 0 0 0 0 0 0 0 0 
0 0 0 0 0 0 0 0 0 0 0 0 0 0 0 20 24 20 27 21 14 11 10 10 8 11 10 12 12 15 17 14 13 7 7 12 13 12 9 10 14 10 8 9 9 11 13 15 16 10 7 6 8 5 6 6 4 3 7 10 8 6 8 10 11 11 8 8 13 16 14 12 14 15 14 18 15 12 14 14 13 11 12 23 31 38 40 19 0 0 0 0 0 0 0 0 0 0 0 0 0 0 0 0 0 0 0 0 0 0 0 0 0 0 0 0 0 0 0 0 0 0 0 0 0 0 0 0 
0 0 0 0 0 0 0 0 0 0 0 0 0 0 0 30 23 22 26 17 11 10 10 10 11 10 10 13 11 14 16 15 11 8 11 14 14 10 11 12 9 7 5 8 13 12 9 9 11 10 10 7 7 8 9 7 7 7 7 6 6 13 12 9 9 10 13 10 9 12 16 13 13 16 15 15 13 13 13 11 10 9 15 20 27 35 39 27 0 0 0 0 0 0 0 0 0 0 0 0 0 0 0 0 0 0 0 0 0 0 0 0 0 0 0 0 0 0 0 0 0 0 0 0 0 0 0 0 
0 0 0 0 0 0 0 0 0 0 0 0 0 0 3 30 21 25 20 12 11 8 10 10 11 10 10 12 12 14 14 13 9 12 12 13 10 12 10 5 6 5 9 10 7 6 8 7 8 8 5 5 5 7 7 6 6 5 5 7 7 7 14 13 9 10 12 15 11 11 15 18 11 14 18 15 13 12 10 10 8 8 15 17 27 36 36 35 0 0 0 0 0 0 0 0 0 0 0 0 0 0 0 0 0 0 0 0 0 0 0 0 0 0 0 0 0 0 0 0 0 0 0 0 0 0 0 0 
0 0 0 0 0 0 0 0 0 0 0 0 0 0 7 29 25 26 18 7 9 8 9 9 9 7 10 13 13 12 15 11 12 15 13 10 12 11 7 5 4 8 10 7 5 6 6 4 6 9 12 13 11 9 8 7 6 8 5 3 7 7 9 13 12 10 13 14 15 10 13 17 16 11 15 18 9 10 8 10 10 9 17 19 28 42 35 38 0 0 0 0 0 0 0 0 0 0 0 0 0 0 0 0 0 0 0 0 0 0 0 0 0 0 0 0 0 0 0 0 0 0 0 0 0 0 0 0 
0 0 0 0 0 0 0 0 0 0 0 0 0 0 10 28 25 21 16 12 8 7 6 11 10 8 12 11 13 11 13 11 15 14 10 12 9 7 8 6 7 8 10 6 5 5 4 4 7 8 10 9 8 4 3 3 3 3 6 6 4 7 6 8 9 10 10 11 14 16 14 15 19 15 14 19 8 11 8 8 10 12 20 20 28 43 38 44 0 0 0 0 0 0 0 0 0 0 0 0 0 0 0 0 0 0 0 0 0 0 0 0 0 0 0 0 0 0 0 0 0 0 0 0 0 0 0 0 
0 0 0 0 0 0 0 0 0 0 0 0 0 0 11 29 28 24 16 14 8 8 7 10 8 9 11 9 12 9 13 13 14 10 13 11 9 8 9 13 12 5 8 8 6 5 2 5 6 7 6 7 7 7 6 5 2 1 5 7 3 7 6 5 8 9 9 12 17 20 18 17 16 16 16 22 11 9 8 8 10 15 20 20 33 43 43 52 2 0 0 0 0 0 0 0 0 0 0 0 0 0 0 0 0 0 0 0 0 0 0 0 0 0 0 0 0 0 0 0 0 0 0 0 0 0 0 0 
0 0 0 0 0 0 0 0 0 0 0 0 0 0 11 29 27 27 22 19 14 12 9 9 10 11 10 10 10 6 14 14 14 15 16 16 9 7 7 4 3 4 4 6 9 6 4 5 9 9 8 8 8 7 8 7 4 1 4 6 3 5 6 4 4 7 7 8 9 9 10 17 22 22 21 23 19 9 9 9 12 16 23 24 35 51 46 51 8 0 0 0 0 0 0 0 0 0 0 0 0 0 0 0 0 0 0 0 0 0 0 0 0 0 0 0 0 0 0 0 0 0 0 0 0 0 0 0 
0 0 0 0 0 0 0 0 0 0 0 0 0 0 12 27 27 28 22 21 20 16 12 10 9 10 7 10 11 8 15 13 21 20 14 8 5 3 2 3 3 3 3 5 5 7 9 8 10 8 7 7 8 9 9 8 6 3 3 1 2 4 2 2 3 5 7 8 7 10 7 8 11 21 28 25 28 11 9 13 17 19 27 27 36 54 52 52 16 0 0 0 0 0 0 0 0 0 0 0 0 0 0 0 0 0 0 0 0 0 0 0 0 0 0 0 0 0 0 0 0 0 0 0 0 0 0 0 
0 0 0 0 0 0 0 0 0 0 0 0 0 0 13 29 33 28 28 24 20 16 17 16 11 11 8 10 10 16 14 20 22 13 6 5 4 3 3 3 3 2 4 6 7 6 6 11 9 9 7 7 8 9 9 8 5 3 2 2 2 2 4 3 2 5 8 8 8 11 7 8 8 11 15 30 29 22 11 17 23 21 25 28 29 49 56 57 22 0 0 0 0 0 0 0 0 0 0 0 0 0 0 0 0 0 0 0 0 0 0 0 0 0 0 0 0 0 0 0 0 0 0 0 0 0 0 0 
0 0 0 0 0 0 0 0 0 0 0 0 0 0 13 31 28 30 29 25 21 16 17 19 15 11 9 10 11 19 18 24 9 6 6 4 3 3 3 3 4 4 6 7 7 7 6 8 8 8 8 8 7 9 9 8 7 7 4 4 4 4 5 3 3 4 7 7 9 12 10 8 9 13 11 22 32 27 22 24 21 21 23 28 28 40 59 60 29 0 0 0 0 0 0 0 0 0 0 0 0 0 0 0 0 0 0 0 0 0 0 0 0 0 0 0 0 0 0 0 0 0 0 0 0 0 0 0 
0 0 0 0 0 0 0 0 0 0 0 0 0 0 12 31 35 30 29 27 21 19 16 16 16 13 11 11 16 18 26 16 7 5 4 3 2 1 2 2 3 5 6 7 7 7 6 8 8 6 11 12 11 12 13 13 10 6 5 5 5 6 4 5 5 4 7 8 9 11 11 10 12 16 12 14 28 30 35 25 22 17 21 28 29 33 57 58 40 0 0 0 0 0 0 0 0 0 0 0 0 0 0 0 0 0 0 0 0 0 0 0 0 0 0 0 0 0 0 0 0 0 0 0 0 0 0 0 
0 0 0 0 0 0 0 0 0 0 0 0 0 0 15 37 38 32 25 24 23 20 18 13 16 19 14 13 22 17 19 10 9 7 7 5 3 2 0 1 4 6 6 6 7 8 7 7 5 5 8 11 12 6 11 13 8 7 6 5 5 5 6 5 3 4 6 9 9 11 10 10 13 14 11 14 19 28 35 25 21 17 20 19 24 27 55 59 47 0 0 0 0 0 0 0 0 0 0 0 0 0 0 0 0 0 0 0 0 0 0 0 0 0 0 0 0 0 0 0 0 0 0 0 0 0 0 0 
0 0 0 0 0 0 0 0 0 0 0 0 0 0 15 39 42 35 25 25 24 21 18 13 16 19 16 16 24 21 14 12 11 8 7 4 3 2 2 3 5 6 5 6 8 7 5 5 5 7 7 9 8 4 6 10 9 10 6 5 5 6 8 6 5 4 8 9 10 11 10 11 12 14 12 14 17 22 30 24 19 16 16 18 17 22 49 58 49 1 0 0 0 0 0 0 0 0 0 0 0 0 0 0 0 0 0 0 0 0 0 0 0 0 0 0 0 0 0 0 0 0 0 0 0 0 0 0 
0 0 0 0 0 0 0 0 0 0 0 0 0 0 18 43 47 35 23 27 23 20 15 9 11 15 15 16 17 17 12 11 10 8 7 4 3 2 4 4 6 6 6 8 7 4 4 6 6 9 6 7 8 7 7 7 10 12 7 4 4 7 7 6 5 6 9 9 11 11 10 11 12 14 14 14 17 25 29 21 15 16 18 19 18 19 39 56 52 3 0 0 0 0 0 0 0 0 0 0 0 0 0 0 0 0 0 0 0 0 0 0 0 0 0 0 0 0 0 0 0 0 0 0 0 0 0 0 
0 0 0 0 0 0 0 0 0 0 0 0 0 0 17 47 48 29 19 22 15 14 10 6 6 12 12 18 21 16 12 11 10 9 8 5 3 3 5 5 5 6 6 7 4 2 6 7 5 6 9 8 9 9 6 6 10 12 7 5 6 7 7 4 5 7 9 8 10 10 9 11 12 12 11 16 20 26 27 27 16 18 18 18 17 18 28 53 56 6 0 0 0 0 0 0 0 0 0 0 0 0 0 0 0 0 0 0 0 0 0 0 0 0 0 0 0 0 0 0 0 0 0 0 0 0 0 0 
0 0 0 0 0 0 0 0 0 0 0 0 0 0 19 50 48 24 17 17 14 14 11 7 6 10 10 20 22 20 11 12 9 8 7 5 4 3 5 5 6 5 4 5 2 2 6 7 5 9 11 7 10 8 6 5 7 13 5 5 7 9 7 3 5 7 8 9 12 10 10 11 11 12 12 16 21 24 24 32 23 18 18 20 19 20 24 37 59 9 0 0 0 0 0 0 0 0 0 0 0 0 0 0 0 0 0 0 0 0 0 0 0 0 0 0 0 0 0 0 0 0 0 0 0 0 0 0 
0 0 0 0 0 0 0 0 0 0 0 0 0 0 19 51 47 21 18 16 13 14 11 10 9 11 12 17 19 21 14 11 10 8 6 4 4 4 6 7 6 3 4 4 5 5 5 6 6 8 9 8 7 7 6 5 5 10 7 6 7 8 7 5 5 7 9 10 10 8 10 10 11 10 12 15 23 24 29 35 27 19 18 19 19 19 24 40 60 10 0 0 0 0 0 0 0 0 0 0 0 0 0 0 0 0 0 0 0 0 0 0 0 0 0 0 0 0 0 0 0 0 0 0 0 0 0 0 
0 0 0 0 0 0 0 0 0 0 0 0 0 0 17 51 44 20 17 16 15 16 12 13 11 11 15 16 17 21 19 12 10 8 7 4 3 4 6 7 5 4 4 2 4 4 5 5 6 9 7 7 7 8 8 5 3 10 7 3 7 8 6 5 6 8 11 12 12 8 10 9 10 10 13 20 29 30 27 32 28 19 20 17 19 19 24 44 55 9 0 0 0 0 0 0 0 0 0 0 0 0 0 0 0 0 0 0 0 0 0 0 0 0 0 0 0 0 0 0 0 0 0 0 0 0 0 0 
0 0 0 0 0 0 0 0 0 0 0 0 0 0 13 51 43 20 18 16 15 14 12 14 12 10 15 18 15 19 23 12 10 9 8 4 4 6 7 8 6 5 5 2 1 3 4 5 6 10 6 6 7 8 7 2 3 9 9 4 7 8 6 4 6 9 11 13 13 8 11 11 10 11 12 18 28 23 22 31 27 16 18 18 19 19 24 45 53 8 0 0 0 0 0 0 0 0 0 0 0 0 0 0 0 0 0 0 0 0 0 0 0 0 0 0 0 0 0 0 0 0 0 0 0 0 0 0 
0 0 0 0 0 0 0 0 0 0 0 0 0 0 12 50 44 20 19 17 15 14 12 11 11 8 13 19 16 17 20 13 11 9 9 5 7 10 9 8 5 4 6 3 2 3 3 4 6 9 8 7 8 9 7 4 3 6 12 3 6 8 7 5 8 10 12 13 11 9 11 12 9 12 14 16 20 19 18 30 28 16 17 18 18 19 25 45 49 6 0 0 0 0 0 0 0 0 0 0 0 0 0 0 0 0 0 0 0 0 0 0 0 0 0 0 0 0 0 0 0 0 0 0 0 0 0 0 
0 0 0 0 0 0 0 0 0 0 0 0 0 0 11 48 42 21 18 16 14 13 12 12 13 8 10 21 20 17 20 14 12 10 9 7 9 10 9 6 4 3 3 2 3 3 4 4 9 8 6 5 7 10 8 5 3 4 6 8 7 8 7 6 8 8 10 12 8 9 10 12 9 12 14 16 16 19 21 28 27 16 17 18 18 18 27 43 44 4 0 0 0 0 0 0 0 0 0 0 0 0 0 0 0 0 0 0 0 0 0 0 0 0 0 0 0 0 0 0 0 0 0 0 0 0 0 0 
0 0 0 0 0 0 0 0 0 0 0 0 0 0 9 44 38 21 17 14 13 13 13 12 13 9 7 22 22 16 18 12 12 11 10 8 7 7 8 5 3 3 3 2 3 3 3 6 5 4 6 3 6 9 7 5 4 4 4 7 8 9 9 7 6 7 10 11 8 8 9 10 8 11 13 14 15 21 27 29 27 14 15 16 17 18 29 41 37 2 0 0 0 0 0 0 0 0 0 0 0 0 0 0 0 0 0 0 0 0 0 0 0 0 0 0 0 0 0 0 0 0 0 0 0 0 0 0 
0 0 0 0 0 0 0 0 0 0 0 0 0 0 5 41 42 21 18 15 12 13 11 11 10 9 11 23 21 15 14 10 12 10 10 9 6 6 6 5 4 3 3 3 2 2 3 4 3 1 2 1 4 6 6 4 5 5 4 6 9 9 13 7 5 8 10 11 7 6 8 7 8 11 11 15 15 19 21 28 30 14 14 16 15 16 32 40 31 2 0 0 0 0 0 0 0 0 0 0 0 0 0 0 0 0 0 0 0 0 0 0 0 0 0 0 0 0 0 0 0 0 0 0 0 0 0 0 
0 0 0 0 0 0 0 0 0 0 0 0 0 0 2 37 42 22 17 13 13 11 10 12 10 10 13 22 18 15 15 10 9 12 10 7 6 7 6 5 5 4 3 2 3 2 3 3 3 1 1 1 4 6 6 5 3 4 5 7 10 10 9 9 6 10 12 11 7 6 8 6 7 8 7 12 16 19 16 27 31 20 14 15 14 18 32 42 28 0 0 0 0 0 0 0 0 0 0 0 0 0 0 0 0 0 0 0 0 0 0 0 0 0 0 0 0 0 0 0 0 0 0 0 0 0 0 0 
0 0 0 0 0 0 0 0 0 0 0 0 0 0 0 27 41 24 17 14 12 11 11 10 9 8 14 19 17 18 18 16 9 11 8 6 6 8 8 7 6 5 4 4 4 4 6 6 2 2 2 2 4 7 7 7 6 5 6 7 10 12 9 9 11 19 22 19 13 11 15 20 20 9 9 13 12 13 18 26 31 23 15 16 17 22 37 39 24 0 0 0 0 0 0 0 0 0 0 0 0 0 0 0 0 0 0 0 0 0 0 0 0 0 0 0 0 0 0 0 0 0 0 0 0 0 0 0 
0 0 0 0 0 0 0 0 0 0 0 0 0 0 0 22 43 27 18 17 15 11 10 10 9 7 15 17 16 16 18 14 8 11 10 8 6 9 9 8 7 5 5 4 4 4 5 6 3 2 2 2 4 5 5 6 5 6 6 6 9 12 10 10 12 21 34 36 34 37 39 36 25 9 9 11 12 12 18 27 29 27 22 18 18 21 38 39 21 0 0 0 0 0 0 0 0 0 0 0 0 0 0 0 0 0 0 0 0 0 0 0 0 0 0 0 0 0 0 0 0 0 0 0 0 0 0 0 
0 0 0 0 0 0 0 0 0 0 0 0 0 0 0 18 41 37 19 17 15 13 10 9 7 12 12 15 16 15 15 14 8 11 12 8 7 8 9 8 7 6 5 4 4 4 5 5 4 2 1 3 6 6 4 4 5 7 8 8 10 9 7 9 17 27 44 42 40 42 32 33 28 14 11 11 12 14 16 25 29 27 26 24 21 30 35 43 15 0 0 0 0 0 0 0 0 0 0 0 0 0 0 0 0 0 0 0 0 0 0 0 0 0 0 0 0 0 0 0 0 0 0 0 0 0 0 0 
0 0 0 0 0 0 0 0 0 0 0 0 0 0 0 11 37 40 23 17 17 13 12 11 11 13 12 16 13 15 14 14 13 10 13 10 10 10 13 12 10 8 6 6 5 4 8 6 4 3 4 6 7 7 7 6 7 9 10 9 8 6 7 9 16 29 39 45 46 37 30 30 33 21 13 17 13 12 19 24 27 32 29 27 29 32 32 41 9 0 0 0 0 0 0 0 0 0 0 0 0 0 0 0 0 0 0 0 0 0 0 0 0 0 0 0 0 0 0 0 0 0 0 0 0 0 0 0 
0 0 0 0 0 0 0 0 0 0 0 0 0 0 0 6 36 44 29 18 19 20 19 15 14 11 13 15 13 11 16 32 39 33 29 31 31 26 14 6 4 7 7 7 7 7 9 9 4 2 4 7 4 5 5 5 5 6 7 6 5 7 9 10 14 24 42 49 47 37 30 34 30 20 11 13 18 17 28 36 41 52 46 31 45 25 34 39 0 0 0 0 0 0 0 0 0 0 0 0 0 0 0 0 0 0 0 0 0 0 0 0 0 0 0 0 0 0 0 0 0 0 0 0 0 0 0 0 
0 0 0 0 0 0 0 0 0 0 0 0 0 0 0 0 35 47 35 21 20 26 29 21 20 13 13 13 12 10 16 26 33 35 33 30 41 36 19 8 6 5 4 4 5 5 4 4 1 0 3 6 5 5 5 4 4 5 6 6 7 8 8 11 12 16 25 39 39 39 36 31 24 13 13 12 20 26 26 42 51 52 40 37 34 31 39 24 0 0 0 0 0 0 0 0 0 0 0 0 0 0 0 0 0 0 0 0 0 0 0 0 0 0 0 0 0 0 0 0 0 0 0 0 0 0 0 0 
0 0 0 0 0 0 0 0 0 0 0 0 0 0 0 0 7 47 46 30 21 35 48 37 31 25 15 16 16 16 15 32 30 23 32 34 30 39 32 15 10 11 9 7 6 5 5 5 3 2 4 6 6 7 9 6 6 6 6 7 8 8 9 11 9 10 16 17 19 19 18 22 23 17 23 17 17 24 27 30 36 35 34 40 39 35 35 27 0 0 0 0 0 0 0 0 0 0 0 0 0 0 0 0 0 0 0 0 0 0 0 0 0 0 0 0 0 0 0 0 0 0 0 0 0 0 0 0 
0 0 0 0 0 0 0 0 0 0 0 0 0 0 0 0 0 38 60 39 31 33 42 46 43 39 32 19 17 12 20 28 35 33 41 47 47 48 33 18 15 11 12 9 7 6 7 6 4 2 3 5 5 7 8 6 6 6 6 7 9 12 11 8 12 17 21 22 22 19 17 20 12 23 24 26 21 20 18 22 25 36 39 38 39 40 46 10 0 0 0 0 0 0 0 0 0 0 0 0 0 0 0 0 0 0 0 0 0 0 0 0 0 0 0 0 0 0 0 0 0 0 0 0 0 0 0 0 
0 0 0 0 0 0 0 0 0 0 0 0 0 0 0 0 0 20 61 50 41 35 30 23 33 38 35 25 15 12 14 25 24 30 46 51 47 33 19 15 14 13 14 11 10 9 8 7 7 5 7 9 6 8 10 8 6 7 8 11 12 9 9 11 12 14 16 29 26 16 19 21 26 27 26 27 24 27 22 23 25 30 35 36 38 38 38 0 0 0 0 0 0 0 0 0 0 0 0 0 0 0 0 0 0 0 0 0 0 0 0 0 0 0 0 0 0 0 0 0 0 0 0 0 0 0 0 0 
0 0 0 0 0 0 0 0 0 0 0 0 0 0 0 0 0 7 54 58 47 33 28 19 18 30 30 23 21 21 16 20 26 26 24 24 26 23 21 15 10 9 10 11 11 10 8 8 7 8 7 8 8 9 8 9 8 8 9 8 8 10 14 16 14 11 13 15 14 13 20 22 26 28 34 42 28 31 29 27 22 24 31 38 40 43 16 0 0 0 0 0 0 0 0 0 0 0 0 0 0 0 0 0 0 0 0 0 0 0 0 0 0 0 0 0 0 0 0 0 0 0 0 0 0 0 0 0 
0 0 0 0 0 0 0 0 0 0 0 0 0 0 0 0 0 0 36 50 46 46 36 28 24 24 22 22 23 31 24 19 14 21 22 25 26 23 22 12 11 10 10 10 9 9 7 7 8 6 8 8 7 8 7 9 8 8 8 9 11 14 15 15 14 15 15 13 16 16 15 23 28 29 32 46 39 35 33 37 32 26 28 34 28 40 1 0 0 0 0 0 0 0 0 0 0 0 0 0 0 0 0 0 0 0 0 0 0 0 0 0 0 0 0 0 0 0 0 0 0 0 0 0 0 0 0 0 
0 0 0 0 0 0 0 0 0 0 0 0 0 0 0 0 0 0 15 39 39 42 38 33 30 27 24 22 21 30 31 21 23 16 19 21 24 24 18 9 12 12 12 13 12 12 11 11 11 10 14 16 11 10 12 13 12 11 12 15 17 17 17 17 19 17 13 14 16 18 19 27 32 27 36 44 42 43 48 49 42 34 32 27 21 21 0 0 0 0 0 0 0 0 0 0 0 0 0 0 0 0 0 0 0 0 0 0 0 0 0 0 0 0 0 0 0 0 0 0 0 0 0 0 0 0 0 0 
0 0 0 0 0 0 0 0 0 0 0 0 0 0 0 0 0 0 2 38 40 32 41 40 32 29 28 25 31 37 32 21 16 21 19 22 19 15 16 14 12 11 12 14 15 14 14 15 15 16 23 19 15 13 13 14 15 17 17 17 17 22 23 24 21 16 15 14 21 22 19 21 28 25 32 44 46 40 53 58 44 35 30 25 27 8 0 0 0 0 0 0 0 0 0 0 0 0 0 0 0 0 0 0 0 0 0 0 0 0 0 0 0 0 0 0 0 0 0 0 0 0 0 0 0 0 0 0 
0 0 0 0 0 0 0 0 0 0 0 0 0 0 0 0 0 0 0 30 42 29 35 36 39 34 36 33 39 38 29 26 28 26 20 19 17 17 14 16 15 16 18 18 19 18 18 18 19 20 18 16 18 23 25 25 29 22 21 24 27 33 34 29 25 19 16 22 25 21 22 20 23 23 25 43 40 41 59 59 41 31 22 17 27 0 0 0 0 0 0 0 0 0 0 0 0 0 0 0 0 0 0 0 0 0 0 0 0 0 0 0 0 0 0 0 0 0 0 0 0 0 0 0 0 0 0 0 
0 0 0 0 0 0 0 0 0 0 0 0 0 0 0 0 0 0 0 9 34 37 28 35 41 43 34 35 38 38 33 31 28 30 23 23 22 21 21 20 19 23 24 26 25 20 21 26 27 21 18 18 21 21 24 35 34 27 27 30 32 32 36 31 28 30 28 26 27 24 21 22 19 21 22 26 32 50 63 50 41 33 23 23 15 0 0 0 0 0 0 0 0 0 0 0 0 0 0 0 0 0 0 0 0 0 0 0 0 0 0 0 0 0 0 0 0 0 0 0 0 0 0 0 0 0 0 0 
0 0 0 0 0 0 0 0 0 0 0 0 0 0 0 0 0 0 0 0 17 32 30 31 41 44 36 35 34 33 31 30 34 27 26 24 24 24 25 28 28 32 31 29 30 24 26 25 33 28 24 27 26 32 27 32 33 40 34 38 38 37 41 28 26 29 30 30 26 15 15 16 16 18 21 24 31 55 56 43 31 26 26 27 7 0 0 0 0 0 0 0 0 0 0 0 0 0 0 0 0 0 0 0 0 0 0 0 0 0 0 0 0 0 0 0 0 0 0 0 0 0 0 0 0 0 0 0 
0 0 0 0 0 0 0 0 0 0 0 0 0 0 0 0 0 0 0 0 15 30 35 24 32 40 44 33 33 28 26 22 24 20 19 21 20 21 23 25 29 33 46 46 39 35 38 37 43 41 34 44 43 49 42 39 42 47 29 29 31 31 36 34 27 37 41 41 32 13 11 13 15 25 32 29 41 50 48 36 22 20 17 26 8 0 0 0 0 0 0 0 0 0 0 0 0 0 0 0 0 0 0 0 0 0 0 0 0 0 0 0 0 0 0 0 0 0 0 0 0 0 0 0 0 0 0 0 
0 0 0 0 0 0 0 0 0 0 0 0 0 0 0 0 0 0 0 0 10 27 34 27 25 28 46 40 29 20 20 20 19 16 15 17 16 17 19 19 23 29 50 47 38 37 46 48 52 49 48 56 52 54 50 31 29 38 22 24 30 33 30 43 33 45 49 51 40 14 13 12 15 22 41 52 52 55 47 17 13 16 18 25 1 0 0 0 0 0 0 0 0 0 0 0 0 0 0 0 0 0 0 0 0 0 0 0 0 0 0 0 0 0 0 0 0 0 0 0 0 0 0 0 0 0 0 0 
0 0 0 0 0 0 0 0 0 0 0 0 0 0 0 0 0 0 0 0 0 19 35 29 19 19 41 45 41 27 20 17 17 14 14 16 18 17 17 17 17 28 51 50 43 33 36 35 45 41 42 52 38 38 35 19 22 33 21 20 28 35 37 39 57 52 53 54 48 21 13 15 16 22 49 59 54 36 23 7 11 16 13 6 0 0 0 0 0 0 0 0 0 0 0 0 0 0 0 0 0 0 0 0 0 0 0 0 0 0 0 0 0 0 0 0 0 0 0 0 0 0 0 0 0 0 0 0 
0 0 0 0 0 0 0 0 0 0 0 0 0 0 0 0 0 0 0 0 0 2 36 30 28 25 24 35 47 46 33 25 15 14 15 15 13 15 15 15 22 43 52 50 44 28 31 31 40 35 30 31 21 43 35 19 26 37 25 17 26 32 32 45 51 60 63 73 78 37 29 20 22 29 42 46 5 5 14 5 3 9 21 0 0 0 0 0 0 0 0 0 0 0 0 0 0 0 0 0 0 0 0 0 0 0 0 0 0 0 0 0 0 0 0 0 0 0 0 0 0 0 0 0 0 0 0 0 
0 0 0 0 0 0 0 0 0 0 0 0 0 0 0 0 0 0 0 0 0 0 7 25 15 11 17 22 36 52 47 22 18 15 16 13 14 17 18 33 22 52 73 56 49 35 40 33 41 44 43 27 26 52 58 30 29 42 38 18 26 23 43 52 40 42 59 63 63 55 24 33 34 27 10 5 1 1 10 6 15 22 1 0 0 0 0 0 0 0 0 0 0 0 0 0 0 0 0 0 0 0 0 0 0 0 0 0 0 0 0 0 0 0 0 0 0 0 0 0 0 0 0 0 0 0 0 0 
0 0 0 0 0 0 0 0 0 0 0 0 0 0 0 0 0 0 0 0 0 0 0 9 11 2 7 6 3 28 29 24 24 19 16 13 18 21 19 23 37 57 54 46 49 46 39 56 56 49 51 48 40 43 43 32 33 38 33 24 25 39 72 80 70 88 63 93 45 55 62 50 24 10 4 5 0 2 9 8 3 0 0 0 0 0 0 0 0 0 0 0 0 0 0 0 0 0 0 0 0 0 0 0 0 0 0 0 0 0 0 0 0 0 0 0 0 0 0 0 0 0 0 0 0 0 0 0 
0 0 0 0 0 0 0 0 0 0 0 0 0 0 0 0 0 0 0 0 0 0 0 0 11 14 5 4 5 0 0 4 25 24 14 12 11 18 32 54 52 45 58 55 64 75 62 61 50 42 22 39 33 39 38 34 28 30 31 29 23 46 75 58 36 74 62 58 62 55 42 29 19 6 1 7 2 10 4 0 0 0 0 0 0 0 0 0 0 0 0 0 0 0 0 0 0 0 0 0 0 0 0 0 0 0 0 0 0 0 0 0 0 0 0 0 0 0 0 0 0 0 0 0 0 0 0 0 
0 0 0 0 0 0 0 0 0 0 0 0 0 0 0 0 0 0 0 0 0 0 0 0 0 2 0 3 8 1 1 2 6 6 1 2 1 0 0 0 0 22 46 45 33 36 34 14 22 5 7 9 12 18 17 13 4 2 4 6 0 7 4 28 36 50 42 15 0 0 0 3 0 1 0 9 8 15 2 0 0 0 0 0 0 0 0 0 0 0 0 0 0 0 0 0 0 0 0 0 0 0 0 0 0 0 0 0 0 0 0 0 0 0 0 0 0 0 0 0 0 0 0 0 0 0 0 0 
0 0 0 0 0 0 0 0 0 0 0 0 0 0 0 0 0 0 0 0 0 0 0 0 0 0 0 0 13 2 1 2 5 6 2 2 3 0 1 7 8 3 3 4 6 4 0 0 2 3 0 0 2 2 3 2 1 0 3 0 1 17 13 8 3 5 11 13 25 24 0 3 3 0 1 10 9 13 1 0 0 0 0 0 0 0 0 0 0 0 0 0 0 0 0 0 0 0 0 0 0 0 0 0 0 0 0 0 0 0 0 0 0 0 0 0 0 0 0 0 0 0 0 0 0 0 0 0 
0 0 0 0 0 0 0 0 0 0 0 0 0 0 0 0 0 0 0 0 0 0 0 0 0 0 0 0 11 6 0 1 3 5 1 1 2 9 21 26 31 35 4 7 10 7 1 0 4 2 0 1 0 0 0 0 3 0 1 0 5 17 5 0 21 53 40 22 28 9 14 21 7 1 3 7 3 6 0 0 0 0 0 0 0 0 0 0 0 0 0 0 0 0 0 0 0 0 0 0 0 0 0 0 0 0 0 0 0 0 0 0 0 0 0 0 0 0 0 0 0 0 0 0 0 0 0 0 
0 0 0 0 0 0 0 0 0 0 0 0 0 0 0 0 0 0 0 0 0 0 0 0 0 0 0 0 4 3 2 1 1 9 5 2 16 16 14 41 54 68 35 18 20 40 32 36 25 13 11 13 15 15 14 14 13 13 13 21 21 26 28 43 58 80 47 51 43 56 42 40 36 32 26 18 9 5 0 0 0 0 0 0 0 0 0 0 0 0 0 0 0 0 0 0 0 0 0 0 0 0 0 0 0 0 0 0 0 0 0 0 0 0 0 0 0 0 0 0 0 0 0 0 0 0 0 0 
0 0 0 0 0 0 0 0 0 0 0 0 0 0 0 0 0 0 0 0 0 0 0 0 0 0 0 0 1 1 2 1 3 18 19 11 12 20 38 20 50 75 69 48 64 79 62 54 36 52 54 39 39 32 42 40 38 30 32 27 26 45 40 42 60 63 61 35 54 68 59 61 39 15 5 3 1 0 0 0 0 0 0 0 0 0 0 0 0 0 0 0 0 0 0 0 0 0 0 0 0 0 0 0 0 0 0 0 0 0 0 0 0 0 0 0 0 0 0 0 0 0 0 0 0 0 0 0 
0 0 0 0 0 0 0 0 0 0 0 0 0 0 0 0 0 0 0 0 0 0 0 0 0 0 0 0 0 1 0 0 0 6 13 5 8 13 12 14 49 46 23 2 7 20 30 49 34 26 21 16 23 12 23 19 24 23 19 13 21 36 21 31 31 20 43 59 55 54 28 2 0 0 5 3 2 0 0 0 0 0 0 0 0 0 0 0 0 0 0 0 0 0 0 0 0 0 0 0 0 0 0 0 0 0 0 0 0 0 0 0 0 0 0 0 0 0 0 0 0 0 0 0 0 0 0 0 
0 0 0 0 0 0 0 0 0 0 0 0 0 0 0 0 0 0 0 0 0 0 0 0 0 0 0 0 0 2 4 0 1 3 4 3 0 4 26 43 39 28 14 1 13 24 33 30 23 17 18 3 15 6 11 4 12 10 13 13 14 28 18 11 21 42 47 35 47 34 13 1 0 3 9 10 7 0 0 0 0 0 0 0 0 0 0 0 0 0 0 0 0 0 0 0 0 0 0 0 0 0 0 0 0 0 0 0 0 0 0 0 0 0 0 0 0 0 0 0 0 0 0 0 0 0 0 0 
0 0 0 0 0 0 0 0 0 0 0 0 0 0 0 0 0 0 0 0 0 0 0 0 0 0 0 0 0 1 3 5 6 3 4 2 2 1 8 29 25 14 2 2 6 22 25 27 28 19 26 7 14 11 13 8 14 11 14 18 19 24 17 11 3 12 35 46 40 22 11 0 2 6 14 18 10 0 0 0 0 0 0 0 0 0 0 0 0 0 0 0 0 0 0 0 0 0 0 0 0 0 0 0 0 0 0 0 0 0 0 0 0 0 0 0 0 0 0 0 0 0 0 0 0 0 0 0 
0 0 0 0 0 0 0 0 0 0 0 0 0 0 0 0 0 0 0 0 0 0 0 0 0 0 0 0 0 0 3 5 9 3 6 7 2 1 1 17 13 6 0 0 1 13 17 23 21 19 26 13 18 16 15 10 16 14 19 26 22 25 21 14 0 4 21 33 25 11 3 2 3 6 16 21 11 0 0 0 0 0 0 0 0 0 0 0 0 0 0 0 0 0 0 0 0 0 0 0 0 0 0 0 0 0 0 0 0 0 0 0 0 0 0 0 0 0 0 0 0 0 0 0 0 0 0 0 
0 0 0 0 0 0 0 0 0 0 0 0 0 0 0 0 0 0 0 0 0 0 0 0 0 0 0 0 0 0 1 6 6 5 8 7 3 2 0 0 0 2 1 0 3 12 15 9 21 17 23 16 15 14 10 6 11 9 14 13 23 36 23 12 0 4 13 19 27 17 10 3 3 7 19 22 5 0 0 0 0 0 0 0 0 0 0 0 0 0 0 0 0 0 0 0 0 0 0 0 0 0 0 0 0 0 0 0 0 0 0 0 0 0 0 0 0 0 0 0 0 0 0 0 0 0 0 0 
0 0 0 0 0 0 0 0 0 0 0 0 0 0 0 0 0 0 0 0 0 0 0 0 0 0 0 0 0 0 0 3 9 6 8 7 3 0 0 0 1 1 1 4 6 13 9 10 16 11 19 14 9 11 6 3 7 7 11 12 14 17 15 8 2 5 11 9 6 14 7 7 5 9 19 21 8 0 0 0 0 0 0 0 0 0 0 0 0 0 0 0 0 0 0 0 0 0 0 0 0 0 0 0 0 0 0 0 0 0 0 0 0 0 0 0 0 0 0 0 0 0 0 0 0 0 0 0 
0 0 0 0 0 0 0 0 0 0 0 0 0 0 0 0 0 0 0 0 0 0 0 0 0 0 0 0 0 0 0 1 9 9 10 9 6 0 0 0 1 2 3 7 8 12 5 8 5 8 20 11 7 8 0 0 0 4 8 5 14 13 10 8 6 9 11 8 5 2 3 2 9 11 21 22 8 0 0 0 0 0 0 0 0 0 0 0 0 0 0 0 0 0 0 0 0 0 0 0 0 0 0 0 0 0 0 0 0 0 0 0 0 0 0 0 0 0 0 0 0 0 0 0 0 0 0 0 
0 0 0 0 0 0 0 0 0 0 0 0 0 0 0 0 0 0 0 0 0 0 0 0 0 0 0 0 0 0 0 0 6 12 13 11 7 1 0 0 1 2 2 6 6 8 6 5 4 8 15 8 5 2 4 5 5 3 4 3 10 9 8 6 6 7 9 2 3 2 3 3 9 14 24 19 0 0 0 0 0 0 0 0 0 0 0 0 0 0 0 0 0 0 0 0 0 0 0 0 0 0 0 0 0 0 0 0 0 0 0 0 0 0 0 0 0 0 0 0 0 0 0 0 0 0 0 0 
0 0 0 0 0 0 0 0 0 0 0 0 0 0 0 0 0 0 0 0 0 0 0 0 0 0 0 0 0 0 0 0 0 1 15 13 11 4 2 0 0 1 0 0 2 6 6 5 5 9 10 8 4 2 4 5 4 3 4 8 11 8 10 5 4 6 2 0 2 3 3 6 14 17 32 0 0 0 0 0 0 0 0 0 0 0 0 0 0 0 0 0 0 0 0 0 0 0 0 0 0 0 0 0 0 0 0 0 0 0 0 0 0 0 0 0 0 0 0 0 0 0 0 0 0 0 0 0 
0 0 0 0 0 0 0 0 0 0 0 0 0 0 0 0 0 0 0 0 0 0 0 0 0 0 0 0 0 0 0 0 0 0 0 20 12 7 7 2 1 1 0 1 0 1 4 5 5 9 9 8 7 3 3 2 4 4 7 8 8 9 12 3 3 3 0 0 2 4 7 14 18 29 13 0 0 0 0 0 0 0 0 0 0 0 0 0 0 0 0 0 0 0 0 0 0 0 0 0 0 0 0 0 0 0 0 0 0 0 0 0 0 0 0 0 0 0 0 0 0 0 0 0 0 0 0 0 
0 0 0 0 0 0 0 0 0 0 0 0 0 0 0 0 0 0 0 0 0 0 0 0 0 0 0 0 0 0 0 0 0 0 0 1 21 13 7 7 5 4 2 3 1 1 1 2 5 5 6 8 10 4 4 5 6 6 12 8 8 9 11 4 4 3 3 6 8 11 12 15 26 19 0 0 0 0 0 0 0 0 0 0 0 0 0 0 0 0 0 0 0 0 0 0 0 0 0 0 0 0 0 0 0 0 0 0 0 0 0 0 0 0 0 0 0 0 0 0 0 0 0 0 0 0 0 0 
0 0 0 0 0 0 0 0 0 0 0 0 0 0 0 0 0 0 0 0 0 0 0 0 0 0 0 0 0 0 0 0 0 0 0 0 1 16 15 14 8 10 7 9 5 4 3 3 6 6 4 9 14 7 6 9 13 12 15 11 9 12 13 7 9 8 11 14 16 18 24 29 16 0 0 0 0 0 0 0 0 0 0 0 0 0 0 0 0 0 0 0 0 0 0 0 0 0 0 0 0 0 0 0 0 0 0 0 0 0 0 0 0 0 0 0 0 0 0 0 0 0 0 0 0 0 0 0 
0 0 0 0 0 0 0 0 0 0 0 0 0 0 0 0 0 0 0 0 0 0 0 0 0 0 0 0 0 0 0 0 0 0 0 0 0 0 10 19 17 19 11 16 9 11 6 6 8 5 7 6 10 7 7 10 12 13 14 10 8 4 10 9 11 17 16 22 21 26 29 13 0 0 0 0 0 0 0 0 0 0 0 0 0 0 0 0 0 0 0 0 0 0 0 0 0 0 0 0 0 0 0 0 0 0 0 0 0 0 0 0 0 0 0 0 0 0 0 0 0 0 0 0 0 0 0 0 
0 0 0 0 0 0 0 0 0 0 0 0 0 0 0 0 0 0 0 0 0 0 0 0 0 0 0 0 0 0 0 0 0 0 0 0 0 0 0 2 16 22 22 21 17 18 12 12 14 12 9 10 11 9 10 12 10 9 15 16 12 10 16 18 19 23 24 28 26 23 6 0 0 0 0 0 0 0 0 0 0 0 0 0 0 0 0 0 0 0 0 0 0 0 0 0 0 0 0 0 0 0 0 0 0 0 0 0 0 0 0 0 0 0 0 0 0 0 0 0 0 0 0 0 0 0 0 0 
0 0 0 0 0 0 0 0 0 0 0 0 0 0 0 0 0 0 0 0 0 0 0 0 0 0 0 0 0 0 0 0 0 0 0 0 0 0 0 0 0 4 19 22 25 25 23 22 21 19 16 15 9 8 9 10 11 10 9 13 19 15 22 28 28 30 29 25 13 0 0 0 0 0 0 0 0 0 0 0 0 0 0 0 0 0 0 0 0 0 0 0 0 0 0 0 0 0 0 0 0 0 0 0 0 0 0 0 0 0 0 0 0 0 0 0 0 0 0 0 0 0 0 0 0 0 0 0 
0 0 0 0 0 0 0 0 0 0 0 0 0 0 0 0 0 0 0 0 0 0 0 0 0 0 0 0 0 0 0 0 0 0 0 0 0 0 0 0 0 0 0 2 14 19 23 22 24 26 28 18 14 12 9 9 9 10 11 13 20 27 30 29 27 22 13 1 0 0 0 0 0 0 0 0 0 0 0 0 0 0 0 0 0 0 0 0 0 0 0 0 0 0 0 0 0 0 0 0 0 0 0 0 0 0 0 0 0 0 0 0 0 0 0 0 0 0 0 0 0 0 0 0 0 0 0 0 
0 0 0 0 0 0 0 0 0 0 0 0 0 0 0 0 0 0 0 0 0 0 0 0 0 0 0 0 0 0 0 0 0 0 0 0 0 0 0 0 0 0 0 0 0 0 2 10 15 17 22 19 15 14 15 13 12 15 17 17 21 21 21 16 6 0 0 0 0 0 0 0 0 0 0 0 0 0 0 0 0 0 0 0 0 0 0 0 0 0 0 0 0 0 0 0 0 0 0 0 0 0 0 0 0 0 0 0 0 0 0 0 0 0 0 0 0 0 0 0 0 0 0 0 0 0 0 0 
