P2
128 99
255
0 0 0 0 0 0 0 0 0 0 0 0 0 0 0 0 0 0 0 0 0 0 0 0 0 0 0 0 0 0 0 0 0 0 0 0 0 0 0 0 0 0 0 0 0 0 0 0 0 0 0 0 0 0 0 0 0 0 0 0 0 0 0 0 0 0 0 0 0 0 0 0 0 0 0 0 0 0 0 0 0 0 0 0 0 0 0 0 0 0 0 0 0 0 0 0 0 0 0 0 0 0 0 0 0 0 0 0 0 0 0 0 0 0 0 0 0 0 0 0 0 0 0 0 0 0 0 0 
0 0 0 0 0 0 0 0 0 0 0 0 0 0 0 0 0 0 0 0 0 0 0 0 0 0 0 0 0 0 0 0 0 0 0 0 0 0 0 0 0 0 0 0 0 0 0 0 0 0 0 0 0 0 0 0 0 0 0 0 0 0 0 0 0 0 0 0 0 0 0 0 0 0 0 0 0 0 0 0 0 0 0 0 0 0 0 0 0 0 0 0 0 0 0 0 0 0 0 0 0 0 0 0 0 0 0 0 0 0 0 0 0 0 0 0 0 0 0 0 0 0 0 0 0 0 0 0 
0 0 0 0 0 0 0 0 0 0 0 0 0 0 0 0 0 0 0 0 0 0 0 0 0 0 0 0 0 0 0 0 0 0 0 0 0 0 0 0 0 0 0 0 0 0 0 0 0 0 0 1 2 2 1 0 0 0 0 0 0 0 0 0 0 0 0 0 0 0 0 0 0 0 0 0 0 0 0 0 0 0 0 0 0 0 0 0 0 0 0 0 0 0 0 0 0 0 0 0 0 0 0 0 0 0 0 0 0 0 0 0 0 0 0 0 0 0 0 0 0 0 0 0 0 0 0 0 
0 0 0 0 0 0 0 0 0 0 0 0 0 0 0 0 0 0 0 0 0 0 0 0 0 0 0 0 0 0 0 0 0 0 0 0 0 0 0 0 0 0 0 0 6 13 16 17 17 18 21 25 27 27 25 21 18 15 14 11 4 0 0 0 0 0 0 0 0 0 0 0 0 0 0 0 0 0 0 0 0 0 0 0 0 0 0 0 0 0 0 0 0 0 0 0 0 0 0 0 0 0 0 0 0 0 0 0 0 0 0 0 0 0 0 0 0 0 0 0 0 0 0 0 0 0 0 0 
0 0 0 0 0 0 0 0 0 0 0 0 0 0 0 0 0 0 0 0 0 0 0 0 0 0 0 0 0 0 0 0 0 0 0 0 0 0 0 0 5 13 19 23 24 33 53 78 102 123 141 152 158 159 154 144 127 105 80 54 33 21 16 10 1 0 0 0 0 0 0 0 0 0 0 0 0 0 0 0 0 0 0 0 0 0 0 0 0 0 0 0 0 0 0 0 0 0 0 0 0 0 0 0 0 0 0 0 0 0 0 0 0 0 0 0 0 0 0 0 0 0 0 0 0 0 0 0 
0 0 0 0 0 0 0 0 0 0 0 0 0 0 0 0 0 0 0 0 0 0 0 0 0 0 0 0 0 0 0 0 0 0 0 0 0 0 8 16 23 24 35 68 113 153 177 187 192 195 197 196 194 193 194 195 194 192 186 175 154 120 79 44 23 15 10 1 0 0 0 0 0 0 0 0 0 0 0 0 0 0 0 0 0 0 0 0 0 0 0 0 0 0 0 0 0 0 0 0 0 0 0 0 0 0 0 0 0 0 0 0 0 0 0 0 0 0 0 0 0 0 0 0 0 0 0 0 
0 0 0 0 0 0 0 0 0 0 0 0 0 0 0 0 0 0 0 0 0 0 0 0 0 0 0 0 0 0 0 0 0 0 0 0 8 21 24 25 51 104 156 184 195 197 197 198 200 203 205 206 206 206 206 205 204 201 198 196 195 190 180 161 125 77 38 18 13 1 0 0 0 0 0 0 0 0 0 0 0 0 0 0 0 0 0 0 0 0 0 0 0 0 0 0 0 0 0 0 0 0 0 0 0 0 0 0 0 0 0 0 0 0 0 0 0 0 0 0 0 0 0 0 0 0 0 0 
0 0 0 0 0 0 0 0 0 0 0 0 0 0 0 0 0 0 0 0 0 0 0 0 0 0 0 0 0 0 0 0 0 0 7 24 24 26 62 127 173 191 196 198 200 203 201 194 188 184 187 194 192 179 177 190 205 211 209 204 201 198 196 196 192 179 152 102 49 22 13 1 0 0 0 0 0 0 0 0 0 0 0 0 0 0 0 0 0 0 0 0 0 0 0 0 0 0 0 0 0 0 0 0 0 0 0 0 0 0 0 0 0 0 0 0 0 0 0 0 0 0 0 0 0 0 0 0 
0 0 0 0 0 0 0 0 0 0 0 0 0 0 0 0 0 0 0 0 0 0 0 0 0 0 0 0 0 0 0 0 4 27 25 23 59 131 178 190 192 196 200 204 201 192 182 170 161 158 159 161 158 151 153 158 166 185 205 214 212 207 203 200 197 196 195 187 161 104 45 23 10 0 0 0 0 0 0 0 0 0 0 0 0 0 0 0 0 0 0 0 0 0 0 0 0 0 0 0 0 0 0 0 0 0 0 0 0 0 0 0 0 0 0 0 0 0 0 0 0 0 0 0 0 0 0 0 
0 0 0 0 0 0 0 0 0 0 0 0 0 0 0 0 0 0 0 0 0 0 0 0 0 0 0 0 0 0 0 23 26 21 40 114 175 188 190 193 198 203 200 184 170 164 157 147 142 139 143 151 152 148 151 154 156 159 171 191 210 215 214 210 206 201 197 196 195 186 153 81 30 18 2 0 0 0 0 0 0 0 0 0 0 0 0 0 0 0 0 0 0 0 0 0 0 0 0 0 0 0 0 0 0 0 0 0 0 0 0 0 0 0 0 0 0 0 0 0 0 0 0 0 0 0 0 0 
0 0 0 0 0 0 0 0 0 0 0 0 0 0 0 0 0 0 0 0 0 0 0 0 0 0 0 0 0 10 28 22 25 84 163 187 190 192 197 202 206 194 175 169 164 156 149 142 138 137 137 142 141 140 145 149 150 149 153 160 176 197 211 217 216 211 206 202 198 198 196 180 123 46 22 5 0 0 0 0 0 0 0 0 0 0 0 0 0 0 0 0 0 0 0 0 0 0 0 0 0 0 0 0 0 0 0 0 0 0 0 0 0 0 0 0 0 0 0 0 0 0 0 0 0 0 0 0 
0 0 0 0 0 0 0 0 0 0 0 0 0 0 0 0 0 0 0 0 0 0 0 0 0 0 0 0 22 24 18 48 135 182 187 192 199 203 207 202 186 176 169 162 159 155 152 147 145 142 137 138 136 135 145 152 151 150 152 155 161 173 189 203 213 218 215 211 207 203 201 198 191 155 69 23 10 0 0 0 0 0 0 0 0 0 0 0 0 0 0 0 0 0 0 0 0 0 0 0 0 0 0 0 0 0 0 0 0 0 0 0 0 0 0 0 0 0 0 0 0 0 0 0 0 0 0 0 
0 0 0 0 0 0 0 0 0 0 0 0 0 0 0 0 0 0 0 0 0 0 0 0 0 0 4 26 20 19 77 162 184 191 196 203 208 208 194 181 175 170 162 159 154 152 152 148 149 141 132 130 128 129 139 149 149 149 151 153 156 166 176 184 194 205 214 218 215 210 205 201 197 191 167 86 24 12 0 0 0 0 0 0 0 0 0 0 0 0 0 0 0 0 0 0 0 0 0 0 0 0 0 0 0 0 0 0 0 0 0 0 0 0 0 0 0 0 0 0 0 0 0 0 0 0 0 0 
0 0 0 0 0 0 0 0 0 0 0 0 0 0 0 0 0 0 0 0 0 0 0 0 0 10 25 18 25 103 172 184 195 202 207 210 203 188 178 172 168 164 159 155 151 152 153 152 143 138 127 126 122 124 129 140 151 154 156 157 156 158 165 173 180 186 194 205 214 217 213 207 201 194 190 172 96 26 13 0 0 0 0 0 0 0 0 0 0 0 0 0 0 0 0 0 0 0 0 0 0 0 0 0 0 0 0 0 0 0 0 0 0 0 0 0 0 0 0 0 0 0 0 0 0 0 0 0 
0 0 0 0 0 0 0 0 0 0 0 0 0 0 0 0 0 0 0 0 0 0 0 0 13 22 16 34 120 174 185 197 205 210 207 194 181 175 172 168 164 160 159 156 151 149 140 132 131 126 123 122 120 123 124 126 136 147 151 150 151 152 157 163 167 172 178 183 190 202 212 214 210 202 195 192 176 107 30 12 0 0 0 0 0 0 0 0 0 0 0 0 0 0 0 0 0 0 0 0 0 0 0 0 0 0 0 0 0 0 0 0 0 0 0 0 0 0 0 0 0 0 0 0 0 0 0 0 
0 0 0 0 0 0 0 0 0 0 0 0 0 0 0 0 0 0 0 0 0 0 3 18 20 15 44 132 172 187 200 207 210 198 183 176 173 171 168 164 160 155 149 141 137 129 125 126 123 124 123 121 118 125 127 127 126 130 139 147 148 148 148 153 160 163 167 168 172 179 191 204 211 209 202 194 191 178 120 35 12 0 0 0 0 0 0 0 0 0 0 0 0 0 0 0 0 0 0 0 0 0 0 0 0 0 0 0 0 0 0 0 0 0 0 0 0 0 0 0 0 0 0 0 0 0 0 0 
0 0 0 0 0 0 0 0 0 0 0 0 0 0 0 0 0 0 0 0 0 5 17 16 16 57 142 170 188 201 209 207 188 176 171 169 167 165 163 159 153 146 141 138 129 122 121 118 120 121 120 115 114 120 123 124 123 123 124 128 132 133 139 146 151 153 156 161 166 168 171 178 195 207 209 202 197 192 177 128 38 9 0 0 0 0 0 0 0 0 0 0 0 0 0 0 0 0 0 0 0 0 0 0 0 0 0 0 0 0 0 0 0 0 0 0 0 0 0 0 0 0 0 0 0 0 0 0 
0 0 0 0 0 0 0 0 0 0 0 0 0 0 0 0 0 0 0 0 6 16 14 18 72 151 171 188 203 209 201 177 168 168 167 163 156 153 151 148 146 141 133 125 122 121 117 120 122 121 119 112 111 121 123 125 126 125 124 127 129 131 132 135 140 144 146 148 153 158 160 164 170 186 200 206 203 198 190 178 133 36 6 0 0 0 0 0 0 0 0 0 0 0 0 0 0 0 0 0 0 0 0 0 0 0 0 0 0 0 0 0 0 0 0 0 0 0 0 0 0 0 0 0 0 0 0 0 
0 0 0 0 0 0 0 0 0 0 0 0 0 0 0 0 0 0 0 5 15 12 19 80 154 171 186 201 208 197 172 162 163 162 157 151 147 145 141 135 129 125 126 124 124 121 117 119 118 114 116 108 110 119 119 121 122 123 123 124 126 127 128 130 129 129 134 142 147 149 148 150 158 164 179 196 206 203 198 188 177 125 28 3 0 0 0 0 0 0 0 0 0 0 0 0 0 0 0 0 0 0 0 0 0 0 0 0 0 0 0 0 0 0 0 0 0 0 0 0 0 0 0 0 0 0 0 0 
0 0 0 0 0 0 0 0 0 0 0 0 0 0 0 0 0 0 4 15 12 19 84 155 169 182 197 206 191 169 162 159 157 155 149 141 135 134 130 125 126 124 123 123 118 114 114 115 113 113 110 105 107 118 119 119 119 120 122 122 121 122 121 122 125 125 128 133 143 146 145 145 147 153 161 174 191 206 204 196 185 171 109 19 1 0 0 0 0 0 0 0 0 0 0 0 0 0 0 0 0 0 0 0 0 0 0 0 0 0 0 0 0 0 0 0 0 0 0 0 0 0 0 0 0 0 0 0 
0 0 0 0 0 0 0 0 0 0 0 0 0 0 0 0 0 1 14 12 18 81 151 166 179 195 206 189 167 159 157 152 150 146 138 131 131 128 124 125 122 118 116 113 112 113 112 111 113 110 103 103 106 115 117 119 121 120 120 121 122 119 117 116 118 122 125 130 135 138 141 142 143 146 153 159 169 187 206 201 193 180 162 84 10 0 0 0 0 0 0 0 0 0 0 0 0 0 0 0 0 0 0 0 0 0 0 0 0 0 0 0 0 0 0 0 0 0 0 0 0 0 0 0 0 0 0 0 
0 0 0 0 0 0 0 0 0 0 0 0 0 0 0 0 0 10 11 16 74 145 160 173 189 203 187 165 158 154 149 147 145 140 128 128 125 123 124 121 114 110 110 111 112 112 109 110 111 102 102 105 107 110 114 116 118 117 118 121 122 119 117 115 113 115 122 126 129 132 133 133 136 138 145 151 159 165 189 206 201 189 173 145 54 3 0 0 0 0 0 0 0 0 0 0 0 0 0 0 0 0 0 0 0 0 0 0 0 0 0 0 0 0 0 0 0 0 0 0 0 0 0 0 0 0 0 0 
0 0 0 0 0 0 0 0 0 0 0 0 0 0 0 0 5 11 14 60 136 154 169 185 199 188 162 156 152 146 144 140 134 128 126 125 123 124 120 113 110 111 112 112 111 107 106 106 102 99 101 105 106 109 109 107 110 110 109 109 113 116 116 113 110 108 113 124 125 127 128 129 129 133 137 143 149 154 160 192 206 198 183 165 119 25 1 0 0 0 0 0 0 0 0 0 0 0 0 0 0 0 0 0 0 0 0 0 0 0 0 0 0 0 0 0 0 0 0 0 0 0 0 0 0 0 0 0 
0 0 0 0 0 0 0 0 0 0 0 0 0 0 0 1 11 13 47 125 149 163 179 195 190 163 152 149 145 145 137 132 129 128 126 123 121 117 113 112 108 103 101 101 102 102 102 103 104 103 107 105 103 107 105 102 104 104 105 105 106 109 111 111 109 108 108 112 121 124 123 124 124 129 134 138 148 149 149 163 197 202 191 176 151 80 7 0 0 0 0 0 0 0 0 0 0 0 0 0 0 0 0 0 0 0 0 0 0 0 0 0 0 0 0 0 0 0 0 0 0 0 0 0 0 0 0 0 
0 0 0 0 0 0 0 0 0 0 0 0 0 0 0 7 10 26 104 141 156 173 189 191 167 151 146 144 143 141 133 129 127 124 121 118 116 113 111 104 99 98 101 101 99 100 101 102 103 105 109 107 102 104 101 101 100 100 101 103 103 103 107 109 111 110 109 109 115 119 120 121 122 123 130 137 144 144 146 148 172 198 195 182 165 125 30 1 0 0 0 0 0 0 0 0 0 0 0 0 0 0 0 0 0 0 0 0 0 0 0 0 0 0 0 0 0 0 0 0 0 0 0 0 0 0 0 0 
0 0 0 0 0 0 0 0 0 0 0 0 0 0 2 8 13 75 132 148 164 182 185 174 151 142 141 140 142 137 131 125 122 122 121 115 113 109 103 99 99 100 101 100 99 99 102 102 102 104 111 110 105 107 104 103 103 103 103 102 101 103 103 105 106 110 108 107 110 115 116 121 121 123 126 134 141 141 141 140 150 183 194 186 171 146 69 3 0 0 0 0 0 0 0 0 0 0 0 0 0 0 0 0 0 0 0 0 0 0 0 0 0 0 0 0 0 0 0 0 0 0 0 0 0 0 0 0 
0 0 0 0 0 0 0 0 0 0 0 0 0 0 5 8 40 117 139 154 174 181 171 161 140 136 138 141 140 135 127 122 121 119 116 109 105 103 102 100 100 99 99 99 101 103 106 107 104 105 112 113 109 108 99 100 105 105 104 103 101 102 103 102 102 104 107 107 108 111 112 118 122 120 123 134 141 140 138 134 139 165 185 188 177 157 109 16 0 0 0 0 0 0 0 0 0 0 0 0 0 0 0 0 0 0 0 0 0 0 0 0 0 0 0 0 0 0 0 0 0 0 0 0 0 0 0 0 
0 0 0 0 0 0 0 0 0 0 0 0 0 0 7 15 85 128 146 163 179 167 165 146 134 134 136 139 136 131 121 118 117 117 113 104 104 104 102 100 99 98 100 102 102 105 107 106 106 103 105 110 111 103 97 97 98 104 105 103 100 101 102 104 104 105 107 109 108 109 112 115 121 121 124 130 139 140 135 130 133 157 175 185 179 163 132 38 1 0 0 0 0 0 0 0 0 0 0 0 0 0 0 0 0 0 0 0 0 0 0 0 0 0 0 0 0 0 0 0 0 0 0 0 0 0 0 0 
0 0 0 0 0 0 0 0 0 0 0 0 0 2 6 37 113 136 152 172 174 162 156 137 130 132 134 137 133 124 121 120 117 115 107 104 105 104 100 98 99 100 102 102 102 103 105 105 104 100 100 104 110 100 95 93 96 99 95 99 100 101 101 104 107 106 105 111 111 109 109 113 120 120 122 131 138 137 131 127 127 150 167 184 181 168 142 62 2 0 0 0 0 0 0 0 0 0 0 0 0 0 0 0 0 0 0 0 0 0 0 0 0 0 0 0 0 0 0 0 0 0 0 0 0 0 0 0 
0 0 0 0 0 0 0 0 0 0 0 0 0 4 8 69 126 140 158 175 160 154 146 131 131 129 130 132 126 123 123 120 118 111 102 105 108 104 100 100 102 103 101 101 101 101 100 102 103 101 100 103 109 102 96 94 96 95 95 95 95 99 100 102 108 108 107 109 114 113 109 112 118 119 120 131 137 130 127 124 121 143 160 180 182 168 149 82 5 0 0 0 0 0 0 0 0 0 0 0 0 0 0 0 0 0 0 0 0 0 0 0 0 0 0 0 0 0 0 0 0 0 0 0 0 0 0 0 
0 0 0 0 0 0 0 0 0 0 0 0 0 5 16 96 130 147 166 168 147 145 139 126 126 125 127 128 120 122 123 122 117 108 107 110 108 103 101 104 106 102 98 97 102 101 100 102 103 99 97 97 105 98 91 91 95 97 97 98 97 98 99 104 107 110 111 110 112 115 113 112 117 120 119 126 132 128 123 123 120 138 154 176 182 169 152 100 9 0 0 0 0 0 0 0 0 0 0 0 0 0 0 0 0 0 0 0 0 0 0 0 0 0 0 0 0 0 0 0 0 0 0 0 0 0 0 0 
0 0 0 0 0 0 0 0 0 0 0 0 0 5 33 114 136 154 168 151 137 139 136 125 121 120 122 124 118 121 122 118 115 111 111 111 105 103 105 104 98 92 96 101 102 100 99 98 97 94 93 92 102 92 90 92 94 95 92 96 101 103 101 103 108 109 114 114 112 113 116 116 115 119 121 123 126 126 120 118 117 136 157 172 182 173 156 116 15 0 0 0 0 0 0 0 0 0 0 0 0 0 0 0 0 0 0 0 0 0 0 0 0 0 0 0 0 0 0 0 0 0 0 0 0 0 0 0 
0 0 0 0 0 0 0 0 0 0 0 0 1 6 50 122 140 159 160 141 132 135 136 123 117 116 120 121 117 117 119 116 115 114 110 111 106 105 103 95 90 94 95 96 98 98 95 91 93 95 95 97 97 93 91 90 89 90 93 96 97 103 104 104 106 110 110 119 118 114 115 117 116 117 122 124 120 120 118 114 113 132 155 167 184 176 160 130 26 0 0 0 0 0 0 0 0 0 0 0 0 0 0 0 0 0 0 0 0 0 0 0 0 0 0 0 0 0 0 0 0 0 0 0 0 0 0 0 
0 0 0 0 0 0 0 0 0 0 0 0 2 7 63 127 146 162 153 138 129 135 136 122 112 112 117 120 115 113 117 116 116 116 113 111 108 106 99 89 92 93 92 93 95 93 92 92 93 94 98 100 97 94 92 90 90 93 93 95 93 95 101 101 104 107 111 114 120 118 116 118 119 117 119 125 114 113 116 115 114 133 155 168 184 181 165 140 37 1 0 0 0 0 0 0 0 0 0 0 0 0 0 0 0 0 0 0 0 0 0 0 0 0 0 0 0 0 0 0 0 0 0 0 0 0 0 0 
0 0 0 0 0 0 0 0 0 0 0 0 2 8 73 131 151 161 152 141 131 134 135 124 114 111 115 117 108 110 117 117 118 114 111 114 108 105 106 97 97 95 92 93 90 90 92 94 93 93 97 100 97 91 89 90 86 88 93 95 92 94 99 100 101 105 106 116 125 124 119 120 120 120 119 124 112 109 113 111 114 138 156 168 183 184 170 151 50 2 0 0 0 0 0 0 0 0 0 0 0 0 0 0 0 0 0 0 0 0 0 0 0 0 0 0 0 0 0 0 0 0 0 0 0 0 0 0 
0 0 0 0 0 0 0 0 0 0 0 0 3 10 82 136 156 163 153 143 135 135 136 126 115 110 114 112 106 109 119 118 117 115 114 115 112 109 111 114 111 102 96 95 95 93 95 99 94 95 98 98 98 90 89 89 87 85 93 94 92 96 98 97 102 109 115 122 124 124 125 125 124 122 122 128 114 109 109 108 117 140 154 166 185 185 173 158 62 3 0 0 0 0 0 0 0 0 0 0 0 0 0 0 0 0 0 0 0 0 0 0 0 0 0 0 0 0 0 0 0 0 0 0 0 0 0 0 
0 0 0 0 0 0 0 0 0 0 0 0 3 12 87 140 160 167 155 147 140 138 138 127 118 112 112 110 104 108 122 119 119 119 121 117 110 101 97 97 94 94 101 105 103 99 96 99 99 99 101 99 102 92 92 92 89 85 92 90 92 97 103 106 102 98 97 98 102 105 110 118 130 135 128 133 127 113 110 112 125 140 152 162 183 188 176 160 77 5 0 0 0 0 0 0 0 0 0 0 0 0 0 0 0 0 0 0 0 0 0 0 0 0 0 0 0 0 0 0 0 0 0 0 0 0 0 0 
0 0 0 0 0 0 0 0 0 0 0 0 4 13 90 143 162 168 153 148 145 142 140 129 121 115 112 105 104 113 125 121 127 126 114 105 97 87 80 83 84 84 86 92 99 107 103 97 94 95 99 98 106 99 95 91 86 82 88 89 95 105 102 96 92 88 91 91 92 96 97 99 112 130 141 140 141 124 114 120 130 139 147 156 177 190 180 163 92 6 0 0 0 0 0 0 0 0 0 0 0 0 0 0 0 0 0 0 0 0 0 0 0 0 0 0 0 0 0 0 0 0 0 0 0 0 0 0 
0 0 0 0 0 0 0 0 0 0 0 0 5 13 94 147 166 167 155 148 144 142 143 138 130 121 114 104 105 120 128 128 131 113 98 91 87 82 80 84 83 83 86 88 90 96 103 102 95 95 98 98 105 104 97 91 86 87 88 93 105 94 91 89 90 94 96 96 99 103 101 97 100 114 136 152 148 138 125 127 133 135 141 149 165 187 181 166 106 10 0 0 0 0 0 0 0 0 0 0 0 0 0 0 0 0 0 0 0 0 0 0 0 0 0 0 0 0 0 0 0 0 0 0 0 0 0 0 
0 0 0 0 0 0 0 0 0 0 0 0 6 14 97 150 165 167 152 146 142 139 139 138 135 125 120 113 110 125 135 135 113 95 92 90 87 85 88 91 90 87 85 88 91 94 95 102 96 99 100 102 108 111 109 101 95 92 88 102 97 88 86 86 91 95 97 99 100 104 106 106 108 116 130 153 153 144 136 132 129 130 134 143 154 180 183 168 120 15 0 0 0 0 0 0 0 0 0 0 0 0 0 0 0 0 0 0 0 0 0 0 0 0 0 0 0 0 0 0 0 0 0 0 0 0 0 0 
0 0 0 0 0 0 0 0 0 0 0 0 7 14 98 151 169 169 147 141 139 138 134 131 132 130 124 123 130 129 140 129 101 93 92 89 86 87 90 89 90 89 88 88 88 90 96 98 99 97 102 109 117 115 120 105 97 92 90 105 89 82 81 86 93 96 98 101 102 107 108 106 113 126 133 138 147 143 144 134 127 125 128 135 145 171 182 168 130 23 0 0 0 0 0 0 0 0 0 0 0 0 0 0 0 0 0 0 0 0 0 0 0 0 0 0 0 0 0 0 0 0 0 0 0 0 0 0 
0 0 0 0 0 0 0 0 0 0 0 0 7 15 101 154 170 169 139 135 136 134 132 125 128 131 125 122 134 138 146 127 111 102 99 93 90 90 88 87 87 89 90 88 88 90 95 100 101 102 107 112 123 116 125 106 96 91 98 101 83 79 84 90 94 97 98 101 104 108 110 107 115 121 121 124 132 142 145 134 124 122 124 124 134 163 181 168 137 34 1 0 0 0 0 0 0 0 0 0 0 0 0 0 0 0 0 0 0 0 0 0 0 0 0 0 0 0 0 0 0 0 0 0 0 0 0 0 
0 0 0 0 0 0 0 0 0 0 0 0 7 16 101 154 172 170 136 134 135 131 127 121 122 122 121 124 131 132 137 128 120 111 103 98 96 93 90 89 89 91 90 89 90 90 93 99 98 100 107 116 118 113 117 115 104 100 99 92 81 82 89 94 96 98 98 98 100 104 107 107 111 114 117 119 125 137 141 134 120 115 117 117 123 151 177 169 141 43 1 0 0 0 0 0 0 0 0 0 0 0 0 0 0 0 0 0 0 0 0 0 0 0 0 0 0 0 0 0 0 0 0 0 0 0 0 0 
0 0 0 0 0 0 0 0 0 0 0 0 7 16 105 157 174 168 132 132 131 126 120 112 114 118 119 122 124 122 125 118 110 107 101 95 93 92 89 85 87 88 90 91 91 91 92 97 101 102 106 105 106 110 108 112 107 105 100 86 83 87 90 92 92 93 92 93 96 101 101 103 110 114 116 114 125 136 139 133 115 111 112 114 116 139 171 168 144 51 2 0 0 0 0 0 0 0 0 0 0 0 0 0 0 0 0 0 0 0 0 0 0 0 0 0 0 0 0 0 0 0 0 0 0 0 0 0 
0 0 0 0 0 0 0 0 0 0 0 0 7 16 105 158 175 163 126 127 122 117 111 104 107 112 116 126 125 118 118 114 102 104 97 91 88 90 89 86 84 87 88 91 90 89 91 92 99 103 112 109 102 104 103 112 108 110 104 87 87 88 91 87 83 86 91 92 95 98 101 101 106 111 110 112 125 135 135 134 119 109 107 109 108 127 157 166 147 58 2 0 0 0 0 0 0 0 0 0 0 0 0 0 0 0 0 0 0 0 0 0 0 0 0 0 0 0 0 0 0 0 0 0 0 0 0 0 
0 0 0 0 0 0 0 0 0 0 0 0 8 17 103 159 175 156 119 118 115 110 104 98 100 106 110 124 127 119 114 113 102 100 94 87 87 86 87 84 85 88 87 87 85 87 91 88 89 104 120 123 112 100 102 94 114 107 100 91 92 92 91 80 81 87 90 93 95 97 99 100 103 110 108 112 125 131 131 137 127 109 106 109 110 122 138 156 148 63 2 0 0 0 0 0 0 0 0 0 0 0 0 0 0 0 0 0 0 0 0 0 0 0 0 0 0 0 0 0 0 0 0 0 0 0 0 0 
0 0 0 0 0 0 0 0 0 0 0 0 7 17 100 158 173 148 117 113 108 105 102 99 99 101 113 120 124 119 113 112 105 97 92 89 88 88 89 87 84 84 86 88 87 90 93 86 85 100 116 122 102 92 93 81 99 113 91 95 92 90 84 82 86 87 91 93 94 96 97 97 102 105 105 114 125 131 138 139 131 111 105 107 110 121 134 155 148 64 2 0 0 0 0 0 0 0 0 0 0 0 0 0 0 0 0 0 0 0 0 0 0 0 0 0 0 0 0 0 0 0 0 0 0 0 0 0 
0 0 0 0 0 0 0 0 0 0 0 0 7 16 95 156 171 139 116 110 107 107 103 101 100 104 115 114 120 119 116 112 105 97 92 90 88 89 89 90 87 82 81 84 87 90 92 82 83 101 117 109 86 81 87 78 84 119 85 91 90 88 82 86 87 89 92 93 94 96 97 96 102 103 104 119 133 140 136 135 131 111 105 103 109 118 134 158 143 62 2 0 0 0 0 0 0 0 0 0 0 0 0 0 0 0 0 0 0 0 0 0 0 0 0 0 0 0 0 0 0 0 0 0 0 0 0 0 
0 0 0 0 0 0 0 0 0 0 0 0 5 14 86 154 169 134 113 109 106 106 103 100 98 103 116 114 117 119 120 114 104 101 93 88 89 92 90 89 88 85 79 78 82 86 90 82 87 104 111 91 86 83 89 77 77 111 102 88 87 83 82 89 88 88 92 94 96 96 95 96 103 99 102 120 139 134 129 134 128 109 104 102 108 115 133 157 138 56 1 0 0 0 0 0 0 0 0 0 0 0 0 0 0 0 0 0 0 0 0 0 0 0 0 0 0 0 0 0 0 0 0 0 0 0 0 0 
0 0 0 0 0 0 0 0 0 0 0 0 4 14 79 150 167 137 115 109 104 104 104 99 97 98 113 115 116 117 120 116 103 102 95 93 94 96 94 92 89 84 82 78 81 84 85 76 88 107 107 88 86 90 95 80 76 89 112 91 85 80 82 88 88 90 93 95 93 92 93 97 100 97 102 119 133 128 125 132 127 108 104 103 106 114 136 153 131 50 1 0 0 0 0 0 0 0 0 0 0 0 0 0 0 0 0 0 0 0 0 0 0 0 0 0 0 0 0 0 0 0 0 0 0 0 0 0 
0 0 0 0 0 0 0 0 0 0 0 0 2 14 73 145 164 141 116 108 104 102 103 102 98 93 108 115 118 118 121 115 102 100 96 94 95 95 95 94 89 82 78 78 78 81 80 78 94 108 93 86 85 95 101 86 79 77 107 98 97 87 84 88 89 91 93 92 89 90 93 99 96 94 102 117 125 126 124 129 125 106 104 102 103 112 140 148 122 44 1 0 0 0 0 0 0 0 0 0 0 0 0 0 0 0 0 0 0 0 0 0 0 0 0 0 0 0 0 0 0 0 0 0 0 0 0 0 
0 0 0 0 0 0 0 0 0 5 4 0 0 11 64 137 159 143 118 106 102 101 103 103 98 91 103 115 119 117 121 113 103 99 97 95 95 92 93 92 90 86 81 78 85 95 91 88 97 99 88 83 86 99 101 89 83 79 91 109 111 107 102 96 92 93 97 95 90 91 94 99 93 93 103 116 122 126 128 130 124 106 101 99 100 113 142 142 111 37 1 0 0 0 0 0 0 0 0 0 0 0 0 0 0 0 0 0 0 0 0 0 0 0 0 0 0 0 0 0 0 0 0 0 0 0 0 0 
0 0 0 0 0 0 0 0 0 2 8 3 0 9 53 129 156 142 118 106 99 100 102 103 97 91 104 118 118 116 118 114 102 97 98 95 94 92 91 92 97 97 93 86 89 92 97 90 102 93 87 82 84 96 95 91 89 84 84 117 121 122 110 101 96 92 94 97 91 89 90 94 92 93 102 117 122 121 126 133 129 107 97 98 99 114 143 136 102 32 0 0 0 0 0 0 0 0 0 0 0 0 0 0 0 0 0 0 0 0 0 0 0 0 0 0 0 0 0 0 0 0 0 0 0 0 0 0 
0 0 0 0 0 0 0 0 0 1 4 8 2 7 41 118 151 141 114 103 97 97 102 104 99 92 103 119 117 117 118 116 104 98 98 96 93 93 92 94 98 95 90 92 102 109 102 94 105 83 84 81 82 98 93 86 89 88 91 120 122 115 107 111 110 107 104 100 93 89 89 94 98 104 106 122 127 124 126 136 137 116 98 98 100 120 143 131 94 26 0 0 0 0 0 0 0 0 0 0 0 0 0 0 0 0 0 0 0 0 0 0 0 0 0 0 0 0 0 0 0 0 0 0 0 0 0 0 
0 0 0 0 0 0 0 0 0 0 2 9 3 7 32 104 145 144 114 105 101 100 102 102 101 94 105 117 118 121 125 124 116 103 98 97 93 95 100 100 101 100 99 103 97 97 94 103 105 81 79 80 81 102 92 85 85 83 90 117 132 115 106 106 112 123 136 132 124 121 125 123 126 127 133 137 125 120 129 138 139 127 104 99 108 130 144 122 86 17 0 0 0 7 3 0 0 0 0 0 0 0 0 0 0 0 0 0 0 0 0 0 0 0 0 0 0 0 0 0 0 0 0 0 0 0 0 0 
0 0 0 0 0 0 0 0 0 0 2 8 5 7 25 92 140 149 118 111 107 98 98 101 101 101 109 115 118 120 126 125 127 128 119 111 111 113 115 113 111 105 90 89 98 98 95 103 106 79 79 84 84 99 90 79 81 83 88 122 133 111 107 107 112 123 149 154 147 149 153 151 144 130 132 138 136 127 129 138 139 129 120 112 109 139 136 117 78 11 3 1 4 2 0 0 0 0 0 0 0 0 0 0 0 0 0 0 0 0 0 0 0 0 0 0 0 0 0 0 0 0 0 0 0 0 0 0 
0 0 0 0 0 0 0 0 0 0 1 8 5 7 19 82 133 154 134 113 106 96 94 100 105 113 113 118 119 121 122 120 118 123 126 127 128 119 115 111 110 103 98 99 98 95 95 104 108 87 82 89 88 103 94 79 82 88 101 130 131 115 105 106 113 128 148 152 151 156 151 145 137 125 132 129 141 144 139 138 138 133 127 129 144 142 123 115 68 8 2 2 4 1 0 0 0 0 0 0 0 0 0 0 0 0 0 0 0 0 0 0 0 0 0 0 0 0 0 0 0 0 0 0 0 0 0 0 
0 0 0 0 0 0 0 0 0 0 0 7 6 8 13 68 124 151 149 118 107 96 98 110 118 115 119 124 121 121 125 129 132 131 125 127 124 122 121 118 112 103 96 95 94 92 95 102 110 97 87 89 91 107 95 84 89 97 108 120 119 117 110 111 119 132 146 149 147 148 143 142 147 149 146 150 151 154 161 156 151 149 145 153 163 140 113 110 52 5 2 2 2 0 0 0 0 0 0 0 0 0 0 0 0 0 0 0 0 0 0 0 0 0 0 0 0 0 0 0 0 0 0 0 0 0 0 0 
0 0 0 0 0 0 0 0 0 0 0 7 7 9 12 55 116 147 154 132 114 112 117 119 126 124 126 133 130 121 134 145 148 154 154 143 140 137 126 111 102 94 97 93 88 89 98 113 112 94 95 95 88 107 95 88 90 100 109 109 115 107 112 114 121 136 151 155 154 152 152 154 154 147 134 142 140 150 162 164 172 175 171 178 179 126 120 105 32 6 3 2 1 0 0 0 0 0 0 0 0 0 0 0 0 0 0 0 0 0 0 0 0 0 0 0 0 0 0 0 0 0 0 0 0 0 0 0 
0 0 0 0 0 0 0 0 0 0 0 8 8 7 8 37 110 144 152 148 136 147 137 136 141 141 141 136 130 129 138 151 154 159 156 145 150 147 134 113 107 104 99 91 92 93 106 113 98 89 92 95 96 117 100 85 84 93 103 102 109 111 109 116 120 124 135 145 150 155 152 148 141 132 135 138 141 148 160 168 173 180 185 182 162 123 121 86 15 5 4 1 1 0 0 0 0 0 0 0 0 0 0 0 0 0 0 0 0 0 0 0 0 0 0 0 0 0 0 0 0 0 0 0 0 0 0 0 
0 0 0 0 0 0 0 0 0 0 0 4 10 6 7 11 62 130 150 149 153 171 177 161 160 156 144 140 136 140 153 160 157 154 158 148 145 146 140 119 110 109 108 99 94 92 101 109 100 90 93 100 98 114 117 94 81 87 93 103 106 106 114 115 115 117 122 135 139 137 128 132 135 130 136 145 149 149 154 160 166 169 172 167 147 122 118 94 17 5 6 2 2 0 0 0 0 0 0 0 0 0 0 0 0 0 0 0 0 0 0 0 0 0 0 0 0 0 0 0 0 0 0 0 0 0 0 0 
0 0 0 0 0 0 0 0 0 0 0 5 7 4 5 9 36 117 152 152 158 174 174 173 168 165 161 152 135 128 139 152 160 158 162 156 152 151 137 113 107 110 111 107 100 98 108 107 103 95 95 103 104 119 117 100 83 80 87 97 104 102 101 111 115 118 123 131 135 126 119 122 120 131 139 145 143 143 141 146 156 170 158 141 118 123 121 63 8 4 6 3 2 0 0 0 0 0 0 0 0 0 0 0 0 0 0 0 0 0 0 0 0 0 0 0 0 0 0 0 0 0 0 0 0 0 0 0 
0 0 0 0 0 0 0 0 0 0 0 5 5 4 3 8 22 93 148 150 151 156 160 151 166 168 161 151 141 134 130 141 148 155 159 158 152 144 130 118 109 109 113 114 102 99 112 103 98 100 102 99 94 113 122 110 85 84 94 98 104 109 107 108 103 102 116 129 132 131 130 123 124 141 147 148 143 149 141 138 146 159 135 123 125 126 110 31 5 3 5 4 2 0 0 0 0 0 0 0 0 0 0 0 0 0 0 0 0 0 0 0 0 0 0 0 0 0 0 0 0 0 0 0 0 0 0 0 
0 0 0 0 0 0 0 0 0 0 0 4 3 4 2 7 16 62 137 150 146 138 147 146 139 148 152 144 141 146 132 127 136 143 143 146 145 136 129 123 106 105 103 99 98 102 114 101 105 112 108 103 95 103 120 120 93 94 100 95 103 116 119 122 109 91 94 103 111 116 124 121 123 143 152 155 150 150 144 140 131 136 131 118 120 121 78 15 6 4 5 3 2 1 0 0 0 0 0 0 0 0 0 0 0 0 0 0 0 0 0 0 0 0 0 0 0 0 0 0 0 0 0 0 0 0 0 0 
0 0 0 0 0 0 0 0 0 0 0 4 3 3 3 8 14 33 114 138 135 134 141 145 145 138 134 130 136 150 148 129 122 125 139 144 140 135 128 107 95 92 100 105 103 105 123 109 117 117 115 109 98 98 122 124 105 100 103 106 109 123 126 126 119 96 87 88 97 107 111 124 138 141 147 156 159 156 153 148 141 138 121 103 104 114 42 9 5 4 4 1 2 2 0 0 0 0 0 0 0 0 0 0 0 0 0 0 0 0 0 0 0 0 0 0 0 0 0 0 0 0 0 0 0 0 0 0 
0 0 0 0 0 0 0 0 0 0 0 3 3 3 2 7 14 17 82 123 122 129 137 144 139 138 133 127 132 147 152 137 117 118 134 141 143 140 121 98 85 98 103 106 107 112 122 121 121 121 128 128 113 112 138 131 114 106 113 116 114 127 128 127 123 106 88 85 96 111 117 132 132 131 142 150 159 164 176 165 148 124 107 86 94 87 19 10 5 5 3 1 2 2 0 0 0 0 0 0 0 0 0 0 0 0 0 0 0 0 0 0 0 0 0 0 0 0 0 0 0 0 0 0 0 0 0 0 
0 0 0 0 0 0 0 0 0 0 0 2 3 4 1 4 12 13 47 118 130 125 137 149 149 143 138 137 142 146 148 132 114 116 119 122 121 116 107 98 91 99 103 111 121 126 126 131 136 136 142 144 149 153 153 141 138 140 132 129 130 141 140 135 127 110 95 91 103 123 116 114 125 123 135 148 161 170 181 170 138 115 96 88 102 57 11 11 6 6 4 1 2 2 0 0 0 0 0 0 0 0 0 0 0 0 0 0 0 0 0 0 0 0 0 0 0 0 0 0 0 0 0 0 0 0 0 0 
0 0 0 0 0 0 0 0 0 0 0 1 4 3 1 4 10 13 25 102 126 115 124 134 156 157 154 145 149 148 148 140 130 125 114 116 108 95 91 105 106 112 112 118 131 139 138 140 150 151 151 154 163 171 174 166 159 154 143 142 148 163 166 154 137 125 121 118 121 126 112 113 124 121 125 149 158 175 173 162 130 104 83 84 99 32 10 11 5 5 4 0 2 2 0 0 0 0 0 0 0 0 0 0 0 0 0 0 0 0 0 0 0 0 0 0 0 0 0 0 0 0 0 0 0 0 0 0 
0 0 0 0 0 0 0 0 0 0 1 2 5 3 2 4 11 12 14 68 119 120 113 118 149 164 162 154 149 147 149 147 135 130 121 118 112 104 101 108 135 134 132 133 138 147 152 150 152 144 144 148 148 148 154 156 153 146 138 139 146 162 170 167 152 145 141 137 142 118 106 107 114 119 116 142 156 178 164 147 127 115 91 99 81 18 8 8 4 4 4 2 3 2 1 0 0 0 0 0 0 0 0 0 0 0 0 0 0 0 0 0 0 0 0 0 0 0 0 0 0 0 0 0 0 0 0 0 
0 0 0 0 0 0 0 0 0 0 1 3 5 2 1 4 9 9 11 40 95 114 115 116 137 157 163 162 150 147 145 147 139 129 118 119 120 120 125 131 139 154 156 150 152 151 152 158 152 148 142 147 145 150 147 147 147 149 139 142 146 157 172 168 169 163 154 158 148 113 99 97 106 117 123 142 159 173 155 130 111 102 109 99 66 15 8 7 4 4 3 1 3 2 1 0 0 0 0 0 0 0 0 0 0 0 0 0 0 0 0 0 0 0 0 0 0 0 0 0 0 0 0 0 0 0 0 0 
0 0 0 0 0 0 0 0 0 0 0 4 12 9 2 4 7 8 11 28 82 115 123 111 120 139 160 162 154 139 139 141 136 122 110 109 113 116 121 130 140 158 168 170 164 160 162 161 154 153 150 157 158 158 152 146 150 153 138 140 143 150 160 167 170 164 157 160 149 111 89 96 111 124 144 156 162 166 149 127 97 86 98 100 58 15 6 4 5 3 2 2 2 2 1 0 0 0 0 0 0 0 0 0 0 0 0 0 0 0 0 0 0 0 0 0 0 0 0 0 0 0 0 0 0 0 0 0 
0 0 0 0 0 0 0 0 0 0 0 3 11 12 9 7 7 10 13 20 66 102 118 116 114 119 149 153 165 141 130 129 135 109 100 103 105 112 117 121 129 148 163 168 168 164 168 165 161 160 158 166 165 163 156 134 136 142 129 128 134 147 148 167 174 172 167 164 150 111 94 97 108 121 161 176 177 173 155 107 87 86 98 93 39 15 4 3 4 2 2 3 4 3 2 0 0 0 0 0 0 0 0 0 0 0 0 0 0 0 0 0 0 0 0 0 0 0 0 0 0 0 0 0 0 0 0 0 
0 0 0 0 0 0 0 0 0 0 0 3 10 10 9 8 8 11 15 15 33 85 117 116 102 112 138 155 167 149 141 133 134 112 94 100 107 109 109 110 116 142 161 162 164 159 157 155 157 156 161 173 167 165 143 117 119 129 129 125 132 150 155 163 184 178 170 164 150 119 97 98 110 135 164 167 175 160 143 97 79 80 80 65 19 13 6 4 4 4 3 4 6 4 2 0 0 0 0 0 0 0 0 0 0 0 0 0 0 0 0 0 0 0 0 0 0 0 0 0 0 0 0 0 0 0 0 0 
0 0 0 0 0 0 0 0 0 0 0 2 10 10 9 9 8 9 13 15 17 49 108 109 107 106 124 151 167 167 156 141 130 124 103 93 94 95 97 106 125 145 156 157 157 153 149 147 148 144 154 155 143 162 157 131 125 130 129 123 141 160 153 170 176 176 170 170 166 134 123 120 135 148 148 148 128 105 104 73 63 84 91 36 11 8 8 5 5 5 4 5 11 5 2 0 0 0 0 0 0 0 0 0 0 0 0 0 0 0 0 0 0 0 0 0 0 0 0 0 0 0 0 0 0 0 0 0 
0 0 0 0 0 0 0 0 0 0 0 0 9 10 6 5 5 5 9 14 19 27 71 98 92 89 113 146 154 167 167 149 133 132 121 105 102 107 114 135 134 167 177 173 170 167 163 167 171 170 170 159 161 179 181 164 154 156 156 153 162 167 179 183 172 170 167 173 170 164 142 143 143 141 115 96 90 88 93 73 93 96 52 16 10 1 1 3 4 4 4 5 8 4 0 0 0 0 0 0 0 0 0 0 0 0 0 0 0 0 0 0 0 0 0 0 0 0 0 0 0 0 0 0 0 0 0 0 
0 0 0 0 0 0 0 0 0 0 0 0 2 7 4 2 2 2 5 10 17 21 35 81 85 74 90 103 101 142 148 150 144 140 130 112 116 122 130 142 166 183 186 186 191 198 192 200 191 183 182 183 181 177 175 169 168 173 175 181 187 191 202 202 198 204 183 192 144 137 147 142 105 86 78 83 84 83 85 73 71 46 28 21 12 1 0 0 1 2 4 6 6 0 0 0 0 0 0 0 0 0 0 0 0 0 0 0 0 0 0 0 0 0 0 0 0 0 0 0 0 0 0 0 0 0 0 0 
0 0 0 0 0 0 0 0 0 0 0 0 0 2 2 1 1 0 0 6 13 20 23 44 80 82 63 53 64 75 94 109 135 136 127 123 116 131 151 168 176 173 180 177 189 195 186 184 180 171 163 169 167 161 160 158 157 156 160 167 168 186 198 181 166 188 172 164 152 138 120 105 90 78 77 90 94 90 68 46 40 39 35 24 18 0 0 0 0 0 1 6 6 0 0 0 0 0 0 0 0 0 0 0 0 0 0 0 0 0 0 0 0 0 0 0 0 0 0 0 0 0 0 0 0 0 0 0 
0 0 0 0 0 0 0 0 0 0 0 0 0 2 4 4 3 2 2 3 9 13 19 22 36 51 35 43 66 63 64 62 79 85 80 89 83 73 76 76 91 120 140 143 136 137 134 117 125 100 95 108 117 115 112 109 92 85 100 100 97 113 102 133 129 153 123 81 64 63 57 65 61 56 56 77 83 84 50 29 28 25 19 7 2 0 2 2 1 1 1 7 4 0 0 0 0 0 0 0 0 0 0 0 0 0 0 0 0 0 0 0 0 0 0 0 0 0 0 0 0 0 0 0 0 0 0 0 
0 0 0 0 0 0 0 0 0 0 0 0 0 0 2 2 2 2 2 0 5 9 13 16 21 22 22 33 67 65 61 62 62 64 63 63 69 61 68 70 82 86 80 81 91 94 81 69 74 77 59 74 90 92 91 89 72 59 74 73 82 100 89 79 77 92 89 96 105 100 63 65 63 54 54 76 85 82 47 28 27 24 15 6 2 0 1 1 1 2 2 4 1 0 0 0 0 0 0 0 0 0 0 0 0 0 0 0 0 0 0 0 0 0 0 0 0 0 0 0 0 0 0 0 0 0 0 0 
0 0 0 0 0 0 0 0 0 0 0 0 0 0 0 0 0 0 0 0 3 8 9 14 20 25 27 35 70 75 65 65 68 71 68 66 76 93 115 126 138 142 108 100 103 104 96 96 102 89 75 88 95 96 95 93 89 74 93 107 106 116 103 95 118 141 102 80 86 77 81 86 77 72 74 87 91 84 48 32 28 23 13 9 1 0 0 0 0 0 1 0 0 0 0 0 0 0 0 0 0 0 0 0 0 0 0 0 0 0 0 0 0 0 0 0 0 0 0 0 0 0 0 0 0 0 0 0 
0 0 0 0 0 0 0 0 0 0 0 0 0 0 0 0 0 0 0 0 0 3 4 7 14 29 35 44 76 88 78 73 78 86 85 85 102 113 114 140 156 171 152 134 141 160 159 157 146 124 117 128 125 124 121 127 122 116 122 142 147 155 146 153 159 167 126 124 107 126 122 112 96 87 86 85 84 79 50 37 24 17 9 7 0 0 0 0 0 0 0 0 0 0 0 0 0 0 0 0 0 0 0 0 0 0 0 0 0 0 0 0 0 0 0 0 0 0 0 0 0 0 0 0 0 0 0 0 
0 0 0 0 0 0 0 0 0 0 0 0 0 0 0 0 0 0 0 0 0 1 3 4 8 23 29 36 63 77 69 70 81 89 94 89 97 111 129 117 153 165 170 159 172 178 174 174 155 164 168 161 163 165 162 156 154 154 154 155 152 168 168 158 166 162 150 126 142 146 130 130 104 78 58 67 77 55 30 23 13 8 6 1 0 0 0 0 0 0 0 0 0 0 0 0 0 0 0 0 0 0 0 0 0 0 0 0 0 0 0 0 0 0 0 0 0 0 0 0 0 0 0 0 0 0 0 0 
0 0 0 0 0 0 0 0 0 0 0 0 0 0 0 0 0 0 0 0 0 0 1 3 7 16 27 35 52 75 75 70 74 76 78 71 77 93 97 96 129 124 121 103 122 139 153 168 160 152 142 137 143 137 140 127 135 135 133 129 134 140 122 131 140 116 134 142 148 150 113 70 52 51 62 82 80 44 25 23 11 6 6 1 0 0 0 0 0 0 0 0 1 1 1 0 1 0 0 0 0 0 0 0 0 0 0 0 0 0 0 0 0 0 0 0 0 0 0 0 0 0 0 0 0 0 0 0 
0 0 0 0 0 0 0 0 0 0 0 0 0 0 0 0 0 0 0 0 0 0 3 6 8 14 19 21 33 55 68 67 65 64 55 52 57 69 97 115 113 113 109 95 106 120 131 136 125 119 114 97 110 100 101 90 102 105 102 103 113 129 126 104 114 127 135 114 131 118 99 64 52 57 73 100 86 46 22 17 17 11 6 0 0 0 0 0 0 0 0 0 0 0 1 0 0 0 0 0 0 0 0 0 0 0 0 0 0 0 0 0 0 0 0 0 0 0 0 0 0 0 0 0 0 0 0 0 
0 0 0 0 0 0 0 0 0 0 0 0 0 0 0 0 0 0 0 0 0 0 1 6 8 12 18 20 25 45 63 74 73 68 56 50 55 65 84 101 101 100 100 102 111 125 131 129 118 114 107 88 94 93 95 90 103 111 113 108 106 116 106 93 84 107 125 129 125 107 94 66 51 58 82 108 88 49 24 18 18 11 6 0 0 0 0 0 0 0 0 0 0 0 1 0 0 0 0 0 0 0 0 0 0 0 0 0 0 0 0 0 0 0 0 0 0 0 0 0 0 0 0 0 0 0 0 0 
0 0 0 0 0 0 0 0 0 0 0 0 0 0 0 0 0 0 0 0 0 0 0 4 8 9 16 21 22 39 59 75 77 71 60 54 49 55 72 98 93 85 89 92 101 111 120 130 127 116 111 98 100 99 98 94 106 105 117 122 114 121 119 107 102 97 111 118 108 95 77 62 55 64 89 112 87 50 24 19 16 10 5 0 0 0 0 0 0 0 0 0 0 0 1 0 0 0 0 0 0 0 0 0 0 0 0 0 0 0 0 0 0 0 0 0 0 0 0 0 0 0 0 0 0 0 0 0 
0 0 0 0 0 0 0 0 0 0 0 0 0 0 0 0 0 0 0 0 0 0 0 2 6 9 12 19 22 32 49 70 78 74 66 57 50 54 60 65 71 79 86 92 99 107 115 121 137 127 115 106 104 101 95 94 101 100 109 119 123 142 133 111 104 93 100 108 110 99 81 63 57 67 95 113 81 50 26 18 14 10 3 0 0 0 0 0 0 0 0 0 0 0 1 0 0 0 0 0 0 0 0 0 0 0 0 0 0 0 0 0 0 0 0 0 0 0 0 0 0 0 0 0 0 0 0 0 
0 0 0 0 0 0 0 0 0 0 0 0 0 0 0 0 0 0 0 0 0 0 0 0 4 7 10 15 20 27 44 61 82 78 69 63 56 52 51 59 66 73 86 92 102 104 104 110 127 118 112 106 100 98 92 92 96 100 107 112 120 127 121 107 103 103 98 91 95 96 81 72 65 70 96 109 81 52 25 16 14 8 2 0 0 0 0 0 0 0 0 0 0 0 1 0 0 0 0 0 0 0 0 0 0 0 0 0 0 0 0 0 0 0 0 0 0 0 0 0 0 0 0 0 0 0 0 0 
0 0 0 0 0 0 0 0 0 0 0 0 0 0 0 0 0 0 0 0 0 0 0 0 1 4 8 12 18 24 42 54 80 77 75 71 62 55 52 59 63 69 85 98 107 104 97 95 101 108 115 105 97 98 94 90 95 104 109 105 115 111 109 103 106 107 103 87 78 74 69 68 72 80 98 105 78 44 19 15 14 7 1 0 0 0 0 0 0 0 0 0 0 0 1 0 0 0 0 0 0 0 0 0 0 0 0 0 0 0 0 0 0 0 0 0 0 0 0 0 0 0 0 0 0 0 0 0 
0 0 0 0 0 0 0 0 0 0 0 0 0 0 0 0 0 0 0 0 0 0 0 0 0 4 5 11 14 19 33 53 67 72 78 73 66 59 55 54 60 68 83 95 99 98 95 89 86 96 110 102 93 92 93 96 97 103 100 102 110 108 101 93 96 99 96 83 75 66 63 70 79 85 102 88 48 23 17 16 15 7 0 0 0 0 0 0 0 0 0 0 0 0 1 0 0 0 0 0 0 0 0 0 0 0 0 0 0 0 0 0 0 0 0 0 0 0 0 0 0 0 0 0 0 0 0 0 
0 0 0 0 0 0 0 0 0 0 0 0 0 0 0 0 0 0 0 0 0 0 0 0 0 3 4 8 14 17 20 31 40 45 71 77 71 62 59 51 56 66 77 80 89 94 94 88 84 95 112 107 96 93 96 96 97 98 100 98 102 99 95 89 90 89 84 76 73 64 62 72 82 92 100 43 17 16 17 17 15 7 0 0 0 0 0 0 0 0 0 0 0 0 1 0 0 0 0 0 0 0 0 0 0 0 0 0 0 0 0 0 0 0 0 0 0 0 0 0 0 0 0 0 0 0 0 0 
0 0 0 0 0 0 0 0 0 0 0 0 0 0 0 0 0 0 0 0 0 0 0 0 0 0 4 4 11 16 19 19 18 15 31 77 80 72 67 60 58 60 67 72 79 82 87 87 89 100 101 104 98 90 84 89 101 100 97 94 97 98 98 88 85 84 72 71 70 68 70 81 88 96 71 23 15 15 16 17 13 6 0 0 0 0 0 0 0 0 0 0 0 0 1 0 0 0 0 0 0 0 0 0 0 0 0 0 0 0 0 0 0 0 0 0 0 0 0 0 0 0 0 0 0 0 0 0 
0 0 0 0 0 0 0 0 0 0 0 0 0 0 0 0 0 0 0 0 0 0 0 0 0 0 1 4 7 13 17 18 17 17 12 37 77 81 73 68 67 65 66 72 79 77 81 87 100 104 95 98 101 95 89 89 100 103 97 92 97 101 107 96 91 84 79 79 75 76 81 88 91 77 35 18 13 14 16 16 11 5 0 0 0 0 0 0 0 0 0 0 0 0 1 0 0 0 0 0 0 0 0 0 0 0 0 0 0 0 0 0 0 0 0 0 0 0 0 0 0 0 0 0 0 0 0 0 
0 0 0 0 0 0 0 0 0 0 0 0 0 0 0 0 0 0 0 0 0 0 0 0 0 0 0 3 6 9 15 18 16 17 12 12 36 71 81 81 76 72 73 80 87 89 88 86 95 99 94 100 102 96 93 101 110 111 110 104 102 111 109 96 93 90 87 88 85 90 95 94 75 36 23 17 12 14 16 14 10 5 0 0 0 0 0 0 0 0 0 0 0 0 1 0 0 0 0 0 0 0 0 0 0 0 0 0 0 0 0 0 0 0 0 0 0 0 0 0 0 0 0 0 0 0 0 0 
0 0 0 0 0 0 0 0 0 0 0 0 0 0 0 0 0 0 0 0 0 0 0 0 0 0 0 2 5 7 11 17 17 17 12 12 16 32 63 79 83 86 84 87 99 101 89 88 90 101 99 97 101 98 95 105 109 108 110 107 98 102 108 102 96 99 101 100 96 95 92 71 36 26 23 16 13 15 15 13 9 5 0 0 0 0 0 0 0 0 0 0 0 0 1 0 0 0 0 0 0 0 0 0 0 0 0 0 0 0 0 0 0 0 0 0 0 0 0 0 0 0 0 0 0 0 0 0 
0 0 0 0 0 0 0 0 0 0 0 0 0 0 0 0 0 0 0 0 0 0 0 0 0 0 0 0 4 6 8 15 16 17 13 11 15 21 29 51 74 87 92 98 105 109 100 96 101 108 100 95 96 101 102 107 110 105 112 116 108 103 115 109 106 108 109 107 99 86 61 34 27 26 22 16 14 14 14 13 9 5 0 0 0 0 0 0 0 0 0 0 0 0 1 0 0 0 0 0 0 0 0 0 0 0 0 0 0 0 0 0 0 0 0 0 0 0 0 0 0 0 0 0 0 0 0 0 
0 0 0 0 0 0 0 0 0 0 0 0 0 0 0 0 0 0 0 0 0 0 0 0 0 0 0 0 1 7 7 12 15 16 14 10 12 20 25 28 37 60 83 94 106 113 106 105 106 107 107 102 103 102 97 100 103 105 110 115 113 106 114 117 112 111 110 103 81 49 30 28 27 24 20 16 13 14 14 12 9 4 0 0 0 0 0 0 0 0 0 0 0 0 1 0 0 0 0 0 0 0 0 0 0 0 0 0 0 0 0 0 0 0 0 0 0 0 0 0 0 0 0 0 0 0 0 0 
0 0 0 0 0 0 0 0 0 0 0 0 0 0 0 0 0 0 0 0 0 0 0 0 0 0 0 0 0 6 5 10 13 16 14 11 11 19 25 28 30 33 40 60 85 96 99 100 99 104 112 110 106 100 96 98 99 105 113 106 110 115 117 115 110 101 87 62 42 37 29 27 26 22 17 15 12 14 14 11 8 3 0 0 0 0 0 0 0 0 0 0 0 0 1 0 0 0 0 0 0 0 0 0 0 0 0 0 0 0 0 0 0 0 0 0 0 0 0 0 0 0 0 0 0 0 0 0 
0 0 0 0 0 0 0 0 0 0 0 0 0 0 0 0 0 0 0 0 0 0 0 0 0 0 0 0 0 4 6 8 12 15 14 11 11 18 25 27 30 32 32 37 49 68 81 88 90 92 103 105 103 102 103 104 104 107 115 112 114 107 105 98 90 72 54 47 40 36 27 27 25 22 16 14 14 14 14 12 9 3 0 0 0 0 0 0 0 0 0 0 0 0 1 0 0 0 0 0 0 0 0 0 0 0 0 0 0 0 0 0 0 0 0 0 0 0 0 0 0 0 0 0 0 0 0 0 
